archive,name,kind,offset,stored_length,decoded_length,encoding,reserved,sha256,magic8
gwy/directpay.mrp,start.mr,start_mr,544,1018,2490,gzip,0,ff67eea7e6eed10e3871bd465953e7137001e2495b1eb13309c56db8659bfc7c,1b4d525080010a00
gwy/directpay.mrp,rbtn1.bmp,media_resource,1580,135,126,gzip,0,6870f369a1da65159078bb5ff89f834ebaf04f86e006e0c602bb5f5599b7e724,1ff81ff81ff8b219
gwy/directpay.mrp,mbtn2.bmp,media_resource,1733,65,42,gzip,0,94269cf25e36cc69405b032c2028878d60ff964ff0638a1cbbeab6518c0776d9,1ff87fbf7fc75fc7
gwy/directpay.mrp,mbtn1.bmp,media_resource,1816,63,42,gzip,0,f6053ac046053529b73dc293652e37ec174e5900e744cd70ff098e649981aa88,1ff8f311982bbc3c
gwy/directpay.mrp,logo.bmp,media_resource,1896,860,1000,gzip,0,2f4be419f98b079c28383566f6615e02d21a9ef09878a8193788d69d19145b3d,1ff81ff81ff81ff8
gwy/directpay.mrp,lbtn2.bmp,media_resource,2774,120,126,gzip,0,69e27fbead8bc9e67f03664bd7785ba693b74933511277486b4cf416a837eb22,1ff81ff81ff81ff8
gwy/directpay.mrp,lbtn1.bmp,media_resource,2912,135,126,gzip,0,80d2a97aa5e9289a9a202a5d9b69ee75e4857326c6b2388abc7d85f3a3e13058,1ff81ff81ff81ff8
gwy/directpay.mrp,rbtn2.bmp,media_resource,3065,120,126,gzip,0,707245422f86b9fc75b20bb91d092f4036afed11e98bb9b69ee08d90de8fd4d0,1ff81ff81ff87fbf
gwy/directpay.mrp,msgbox.bmp,media_resource,3204,33,24,gzip,0,ebe64fbc7f251b7baaac2eb03bb78d1baa8ff51f645fc5e5b6f284c3f2ccc3c7,d209dff73e963e96
gwy/directpay.mrp,reg.ext,reg_ext,3253,657,704,gzip,0,4ce5efdbb6e7cdcd9264162a7b9bf799d36d28e696234afb19b372002373835f,4d525047434d4150
gwy/directpay.mrp,directpay.ext,ext,3932,21050,31080,gzip,0,e260c25b1fd35f68ed8ca4085b10db26c98b90adfa88dec76be27a0041b25500,4d525047434d4150
gwy/dload.mrp,start.mr,start_mr,335,917,2240,gzip,0,7fc8d5412ac5d932196ebd2b1f22b042965442057f604371f3025d072e94c5fb,1b4d525080010a00
gwy/dload.mrp,reg.ext,reg_ext,1268,737,796,gzip,0,314a508ae38af566135e21ea791c64e27d1f06992a1a00fa1326e45fbdc80dfa,4d525047434d4150
gwy/dload.mrp,download.ext,ext,2026,8771,11744,gzip,0,6d623b08c181ad44a5b4f6ea97c71598eb68acad90b7a11403f77cc7cd1124ce,4d525047434d4150
gwy/font.mrp,start.mr,start_mr,970,1748,4536,gzip,0,343197ddca55c015ec3ba917820b0f3dc5aff4da3e076a09485b3483744fbab6,1b4d525080010a00
gwy/font.mrp,reg.ext,reg_ext,2734,872,1252,gzip,0,def01cdc41e8d55f043a22f48d94451e69c8b6eeb785b6535bdf96ac7bcdb092,4d525047434d4150
gwy/font.mrp,font.ext,ext,3623,2413,4024,gzip,0,ddb3fa8750795217ca03b3796accad46d1c9bb912023bdedd712742f82b5fd14,4d525047434d4150
gwy/font.mrp,gb123.uc2,other,6054,354,51200,gzip,0,23ecbad17121ac5cf1abd665d966b43c8c9928b6575f64f9d7e36be2dc2286e9,00000007fc404404
gwy/font.mrp,gb122.uc2,other,6426,179,51200,gzip,0,f129a4ac872a06fedc26aa678fc66ed0dd7c471c24dfd601572809467a4b5bce,044044044047fc00
gwy/font.mrp,gb121.uc2,other,6623,1943,51200,gzip,0,750d11416d5eb6fb4027e6d95226a612c9a1e8918450f5dce078661707fca4ef,0000000000000000
gwy/font.mrp,gb127.uc2,other,8584,176,51200,gzip,0,3a5c20a1b13c2f34c4bd6cb3ce48ddc1ed2880d2f71453e4d9cbe6f7c03fe9f7,4047fc0000000007
gwy/font.mrp,gb126.uc2,other,8778,178,51200,gzip,0,8d42fa25b8d6dd32f5e94cc8f8c9af1bcb457c092433368738a714853eaa5c61,4404404404404404
gwy/font.mrp,gb125.uc2,other,8974,2423,51200,gzip,0,f2f476506c4cb3ca40cfc7d1a25f3edac095aae5e6055223d80042ecb922a9a4,fc0000000007fc40
gwy/font.mrp,gb124.uc2,other,11415,1601,51200,gzip,0,e0cebf3684d36d6eb82f75891415f0b2122bd5531820dcf872d56cb4ebebcefc,4044044044044047
gwy/font.mrp,gb129.uc2,other,13034,14938,51200,gzip,0,03c3e1b75ed9373c46e89cc06b8c12016335ec11bebd6dd33901a4f02c8670c9,44044047fc000000
gwy/font.mrp,gb128.uc2,other,27990,15828,51200,gzip,0,e4d7c9ca83debbad9b48bbeeb3d23b4c9afdc79461bdc3d53729e9bc848aa42f,fc40440440440440
gwy/font.mrp,gb1222.uc2,other,43837,178,51200,gzip,0,8c72de82d0c5996e51fd45972f8b55e27d9bd7b3d9707ba161cc4144581e8f23,4044044044044047
gwy/font.mrp,gb1223.uc2,other,44034,926,51200,gzip,0,e38dc96f27f041fa4b9c601704fe26d93ac3a51820f98b75d18923f042ce2a9e,fc0000000007fc40
gwy/font.mrp,gb1220.uc2,other,44979,179,51200,gzip,0,f129a4ac872a06fedc26aa678fc66ed0dd7c471c24dfd601572809467a4b5bce,044044044047fc00
gwy/font.mrp,gb1221.uc2,other,45177,175,51200,gzip,0,c60942ab63c39a98789a79b7b15e58f25d4959cf78ec0170fdc6f977a7d22766,00000007fc404404
gwy/font.mrp,gb1224.uc2,other,45371,107,2030,gzip,0,e0948750263514263a83ce40b73aba39c387fb2f226cd36843af9c883f27a97b,4404404404404404
gwy/font.mrp,gb1217.uc2,other,45497,176,51200,gzip,0,9a55095658bcbbcb13d3eb123d050295f70fab37c11140b96fee90d6222e4feb,fc40440440440440
gwy/font.mrp,gb1216.uc2,other,45692,176,51200,gzip,0,3a5c20a1b13c2f34c4bd6cb3ce48ddc1ed2880d2f71453e4d9cbe6f7c03fe9f7,4047fc0000000007
gwy/font.mrp,gb1215.uc2,other,45887,3519,51200,gzip,0,72ced178c9705d3dbfb69efc7fb943beda9190970d17391de55f930ae33b2092,4404404404404404
gwy/font.mrp,gb1214.uc2,other,49425,11651,51200,gzip,0,8f3c9703602d73424fcf675d75f86cead310186ded8ff5e8e56c1a95b6cce0f2,fc0000000007fc40
gwy/font.mrp,gb1213.uc2,other,61095,12954,51200,gzip,0,1df558801121628fc74a063b23147b1001ca21ca04336f3b5fe546bd5d4de015,4044044044044047
gwy/font.mrp,gb1212.uc2,other,74068,13844,51200,gzip,0,7b625232fc1c731e3d1e60949cde32aa3151741a790ac367f7caec8bb0b9d456,0000110efe210f7c
gwy/font.mrp,gb1211.uc2,other,87931,13273,51200,gzip,0,429a2b30745a98334b4680c9f8b37345582d1f4964f8b7979f35bdfab80ca120,044044044047fc00
gwy/font.mrp,gb1210.uc2,other,101223,14484,51200,gzip,0,38ed04510db922e3a44358d8a5e946e9d431deed19c4651fa2da5826b17f6535,238248ffe25237e6
gwy/font.mrp,gb1219.uc2,other,115726,176,51200,gzip,0,98723f34963e720ef18e6520493680dcbb0298a6321e8174b614a4c544aee6e7,0007fc4044044044
gwy/font.mrp,gb1218.uc2,other,115921,177,51200,gzip,0,f48048843055f6861c9589b54db134d5af4a1ef34b4dd9c80f4cb7ee8f9cd7dc,44044047fc000000
gwy/gamelist.mrp,start.mr,start_mr,914,1018,2490,gzip,0,ff67eea7e6eed10e3871bd465953e7137001e2495b1eb13309c56db8659bfc7c,1b4d525080010a00
gwy/gamelist.mrp,head.bmp,media_resource,1949,225,448,gzip,0,8b8f555664df55ac7628e3e82a2b1aea91942fd0b52eadb88ee8d919c32fb58e,1ff81ff81ff81ff8
gwy/gamelist.mrp,new.bmp,media_resource,2190,62,336,gzip,0,77e46fb23cb79ed1211b38824fe8ee5313809f5c173e89da8d0cd3c3f9bb3fc0,a0e0a0e0a0e0a0e0
gwy/gamelist.mrp,dload.bmp,media_resource,2270,855,3200,gzip,0,d063276af4944da2bc4425ad273f57844eb03ddd06bfcfd43ce4ec53c17effdb,1ff8980398039803
gwy/gamelist.mrp,gamelist.bmp,media_resource,3146,553,800,gzip,0,acc5c2b4ede669c440c531c8c689563f5cb1dbb2cbde8026ac7eccae00c2ce86,1ff81ff81ff81ff8
gwy/gamelist.mrp,dl_list.bmp,media_resource,3719,560,800,gzip,0,eba610003d61d1cc71da4e99631bb26d372e2d106df31a2e3a35a8a0e86af28e,3d353d353d353d35
gwy/gamelist.mrp,dtiele.bmp,media_resource,4298,47,80,gzip,0,4b6f544efb9daf3aa23311c11095f9690b8fcdb733bf1c6d96bb5cd78b45ea02,dc8ddc8ddc8ddc8d
gwy/gamelist.mrp,exit.bmp,media_resource,4362,2715,10296,gzip,0,b2d07814e86f4437d0e5aeb9b7aa5c53bbacb3e3f409e5610265bb867237059b,0000000000004108
gwy/gamelist.mrp,msg.mid,media_resource,7093,99,109,gzip,0,4bd584ed65f38fd15fd9c127d582dcb857e443e55ca4b1a32d0f6e5a0bab226a,4d54686400000006
gwy/gamelist.mrp,title.bmp,media_resource,7210,152,840,gzip,0,a794d229e579b89238223aee84cd2fd188bf21c7f55ba6d0daf34fa5696b6480,d001d001d001d001
gwy/gamelist.mrp,dload1.bmp,media_resource,7381,150,338,gzip,0,b2695e3115d5ce8e31ade78a5292e96552a5579cdfff3cc59e387c3f6ade2ec1,1ff8801380138013
gwy/gamelist.mrp,dload.gif,media_resource,7549,1350,1452,gzip,0,a5c5a9f7c5fe259932d3648ca41320743712c93da941f6b60ebe3964a433f459,4749463839612800
gwy/gamelist.mrp,border.bmp,media_resource,8918,443,7920,gzip,0,cb83b285a8dc691625fd9175b24759326b6acdb4fb86f0ef1eaef9a335362ddb,1ff8b6d60deec8f5
gwy/gamelist.mrp,2.bmp,media_resource,9375,290,800,gzip,0,44693ea7a279f27a6b1729fb8895eed418aac17aa8e1082f36a8140b774ad5a6,1ff897c097c097c0
gwy/gamelist.mrp,1.bmp,media_resource,9679,446,800,gzip,0,bb4a0b2b84224b18d79ec233ef4b10ca46074765fb9c7cf177929bc318e08ec2,1ff8cdfecdfecdfe
gwy/gamelist.mrp,dbtitle.bmp,media_resource,10145,437,1596,gzip,0,632a96600d7c9f0d3ee4da23c9d1e0ff82e2160fc2ef1927c5cdc789abf74010,1ff81ff81ff81ff8
gwy/gamelist.mrp,dbboard.bmp,media_resource,10602,40,100,gzip,0,143ccd38a69f226900eaee45271ab9284201ed1adb85fb575dd04b503e1232d7,5f255f255f25fdce
gwy/gamelist.mrp,4.bmp,media_resource,10656,259,800,gzip,0,8ce6ec079a361f8bdb6eb93e082457752908e27f3bf56469be7aff43b6cb3d49,1ff806f806f806f8
gwy/gamelist.mrp,5.bmp,media_resource,10929,289,800,gzip,0,79c1724bf3dc7cc035b5234733b4f7d5437f243688b30face5bc8029b812a0a6,1ff845f745f745f7
gwy/gamelist.mrp,dbhead.bmp,media_resource,11237,402,2112,gzip,0,f3f4d9d0ff03160d2d617f203660fe2a4b6beccf4303bc78ca6d40d488fa9b13,1ff81ff89fefdfef
gwy/gamelist.mrp,dbbot.bmp,media_resource,11657,140,384,gzip,0,03e223c308e8fdc3f545fe552afa6a822cb27a87ec0bbc1b54b7cc30fae4b13d,5f255f255f25fdce
gwy/gamelist.mrp,6.bmp,media_resource,11811,299,800,gzip,0,93c65d72a3079ed77df4ffde857d9246a272a6c2447d4d7df668bcb1998aefb5,1ff8da32da32da32
gwy/gamelist.mrp,3.bmp,media_resource,12124,287,800,gzip,0,c43f257d9985734aad039632b3f34d8aa5754bd690bcbf928e8dd10efefbea83,1ff8812e812e812e
gwy/gamelist.mrp,cfg.bin,other,12427,847,6898,gzip,0,12fdc4f2b83516e9f9cd5e2691dfe394243c2101ca1ad3c8ad14b68edf791042,0004000100000036
gwy/gamelist.mrp,gamelist.ext,ext,13295,58522,91532,gzip,0,70abc063dae99c95e7d9d7a44db5117c9512a430078c2672ecae9e28c3616414,4d525047434d4150
gwy/gamelist.mrp,reg.ext,reg_ext,71833,787,868,gzip,0,e803033aae4175669f4759b6f372c0717ef72170ec1fd7ccbe26add4058197ef,4d525047434d4150
gwy/gbrwcore.mrp,start.mr,start_mr,335,1018,2490,gzip,0,ff67eea7e6eed10e3871bd465953e7137001e2495b1eb13309c56db8659bfc7c,1b4d525080010a00
gwy/gbrwcore.mrp,reg.ext,reg_ext,1369,638,684,gzip,0,8cd1a97b5cb27f9cd6ab6e67d496b9acf3b0cd48386efe17c345b36341dd8d0c,4d525047434d4150
gwy/gbrwcore.mrp,gbrwcore.ext,ext,2028,98264,147196,gzip,0,bad9ffb88d41d26a7db81ae41a449e2476ea615947ab06819a6ac13a55c26270,4d525047434d4150
gwy/gbrwshell.mrp,start.mr,start_mr,499,917,2240,gzip,0,7fc8d5412ac5d932196ebd2b1f22b042965442057f604371f3025d072e94c5fb,1b4d525080010a00
gwy/gbrwshell.mrp,fmfolder.bmp,media_resource,1437,156,448,gzip,0,c8af9998b2af6fe36a4bdb76e9c929a59f46c03d55ba65f82d4afcbced08d68f,1ff81ff81ff81ff8
gwy/gbrwshell.mrp,fmcmmn.bmp,media_resource,1612,253,448,gzip,0,91a55b79806879d1f4359a5ec84a6377ae237f50e11bfe5458b5f40f469d862e,1ff81ff81ff81ff8
gwy/gbrwshell.mrp,fmback.bmp,media_resource,1884,157,448,gzip,0,976e8d22eb13368092523f97812840be71d112fd37870ed5158a77d264c87517,1ff81ff81ff81ff8
gwy/gbrwshell.mrp,progbar.bmp,media_resource,2061,106,108,gzip,0,47abc406d26efb0926b4bcacd0e194dd55a0091df9c3eb4ad810f52d19f9d9c2,1ff871ad70ff6dd6
gwy/gbrwshell.mrp,listf.bmp,media_resource,2185,65,116,gzip,0,f36d6920923e372212bf7856d933eb0535b7285c072df10da11db8805e7ebe71,9ef79ef71ce71ce7
gwy/gbrwshell.mrp,fmimg.bmp,media_resource,2268,302,448,gzip,0,a8b18d9f277bc3b71fa80c35a63b836b255e75e1534567f009ae012903a72357,1ff81ff81ff81ff8
gwy/gbrwshell.mrp,reg.ext,reg_ext,2586,598,628,gzip,0,1de1bb39d67acca823b02f379347fa440f19c4cf512f0c11018dda0ba9deeb29,4d525047434d4150
gwy/gbrwshell.mrp,gbrwshell.ext,ext,3206,29946,45216,gzip,0,5ebecf0d9fc8e77d2c8efd5b3c173702e7a1ee52d8911b518e3a885ce512e799,4d525047434d4150
gwy/jjfb.mrp,start.mr,start_mr,1921,1514,3787,gzip,0,c8d664aa7034d044ded428158f9cca1d49a3781242421eb1b1de7f201949ff05,1b4d525080010a00
gwy/jjfb.mrp,mrc_loader.ext,ext,3458,219,232,gzip,0,d36151ee3c119717305afe4b1f0ba47f0f0154f8ba6f2c5081d6402c8eddd938,4d525047434d4150
gwy/jjfb.mrp,jiantou_t!12!10.bmp,dimensioned_resource,3705,47,240,gzip,0,b5be03d78f1fc1c7b688b3e2c76e6c2239c1c2b2e533e72f207c380ea5981c94,0000000000000000
gwy/jjfb.mrp,loadingbar!201!29.bmp,dimensioned_resource,3782,1385,11658,gzip,0,6ab17ba601918ab21e1ec7d802ed70027586f2ce231e5b11732e0f97a5d6435d,1ff81ff81ff81ff8
gwy/jjfb.mrp,wy_jiao02!10!10.bmp,dimensioned_resource,5195,91,200,gzip,0,57298e740114d972d8c14c4c9b9075ec5119be13acc3888512b7cf658f6e2786,0000359fef744832
gwy/jjfb.mrp,bar!16!18.bmp,dimensioned_resource,5308,35,576,gzip,0,3dfc15b75d265a3593991b6d076e41b678d341c681721628baac21cd081886eb,0000000000000000
gwy/jjfb.mrp,jiao42!11!6.bmp,dimensioned_resource,5367,48,132,gzip,0,a252997e7ea6abb542f300257d4459eed5217c8616692da92afa473762396013,206a206a206a206a
gwy/jjfb.mrp,target.ani,media_resource,5434,113,125,gzip,0,b35ad4317927a0c190731b4fd15361d7c644653b9fe642852f51c3912702d83b,4a43414e49303131
gwy/jjfb.mrp,textbar!120!30.bmp,dimensioned_resource,5574,1544,7200,gzip,0,1ec9f3d46f79243d4c961afc2b61a241b213a22ef35f43999fd6f2a1adb13bbc,6241624162416241
gwy/jjfb.mrp,listicon.bmp,media_resource,7139,184,800,gzip,0,2828abd633027d0d3a890438149f574eb1b626262689f92027ae3b21e24c75f2,1ff8411041104110
gwy/jjfb.mrp,target!65!25.bmp,dimensioned_resource,7348,351,3250,gzip,0,636bacb7634ff7eda8c69ae9816decc99f62a9356c1986cdbe97b887255cba7a,1ff81ff821ec21ec
gwy/jjfb.mrp,dirarrow!13!12.bmp,dimensioned_resource,7726,95,312,gzip,0,b74167de275cc489e573714b3c5a7af4d0df86a31e31cf6c353fde4accb0f866,1ff81ff81ff81ff8
gwy/jjfb.mrp,wy_jiao3!10!10.bmp,dimensioned_resource,7848,67,200,gzip,0,6c75abc1bb592f55c075d4681769205d25f65d11744b95155e967d3f3bd8878c,1ff81ff81ff81ff8
gwy/jjfb.mrp,wy_xian2!15!5.bmp,dimensioned_resource,7941,35,150,gzip,0,d38fb926de56c4243ea0145f5454b52ccfd19d683ebe4cb758743efabc4a5485,2001200120012001
gwy/jjfb.mrp,wy_jiao2!10!10.bmp,dimensioned_resource,8003,67,200,gzip,0,e44746d176272d4165daa2e5733c7ea188c82762c8bba8fe8f65618d5613415c,1ff81ff81ff81ff8
gwy/jjfb.mrp,wy_jiao22!10!10.bmp,dimensioned_resource,8098,48,200,gzip,0,455e422004ed8dbfa1e822e656034aaa60d5c7fd77dd8409483f832680b66881,2001fc678c128c12
gwy/jjfb.mrp,wy_jiao5!11!11.bmp,dimensioned_resource,8173,73,242,gzip,0,8c32b77a50ba7638952ccdbfbd160b2c9ba7f618157222b1c563151ef52bcdc6,1ff81ff81ff81ff8
gwy/jjfb.mrp,wy_xian1!15!7.bmp,dimensioned_resource,8272,36,210,gzip,0,84d53fabd01318e635c5f87138f21d2eb3271d280f56ca9c0dd8b01f1554968d,2001200120012001
gwy/jjfb.mrp,wy_jiao12!11!11.bmp,dimensioned_resource,8336,51,242,gzip,0,a998e920d576ab639cdffad5b47f8f088431c8fa12f44747b68ebbb45f78b6d8,20016f7765126512
gwy/jjfb.mrp,wy_jiao1!11!11.bmp,dimensioned_resource,8414,90,242,gzip,0,edfe428dfb2daa8deea599915b7c5d4db75b6bfbfe78671cecd33e4ca4662a13,1ff8600060006000
gwy/jjfb.mrp,jt!30!16.bmp,dimensioned_resource,8525,148,960,gzip,0,c65d7cdd7edb99447ff33268a7e56658bbddf7b502c0a08877a1c2bc897dc601,1ff81ff81ff81ff8
gwy/jjfb.mrp,top!76!28.bmp,dimensioned_resource,8695,1321,4256,gzip,0,b2dbe87f1b037af5cb892bac0c0469f2d7d5415f9df7df4c1d2bb9f5f8d9da0a,1ff81ff81ff81ff8
gwy/jjfb.mrp,jiantou!12!15.bmp,dimensioned_resource,10042,108,360,gzip,0,26cd05339d7819be0b6cff6781cf666f5fd614a55fe943594d606d021bf6f7c2,1ff81ff81ff81ff8
gwy/jjfb.mrp,wy_xian0!15!6.bmp,dimensioned_resource,10176,42,180,gzip,0,e581348ffc815e467b5314bdfc9bb887dc3ae02ded019975403af80037572899,0000000000000000
gwy/jjfb.mrp,wy_jiao0!10!10.bmp,dimensioned_resource,10245,89,200,gzip,0,de492a542e5aec02cee34d3508c0c728c09d5404ed24007211f44d74f90a0f64,1ff81ff800000000
gwy/jjfb.mrp,wy_xian3!15!5.bmp,dimensioned_resource,10360,36,150,gzip,0,872cd8cab86510eb19b578fec2ffa07af1792940c95835644cb59618bb73ce92,2001200120012001
gwy/jjfb.mrp,wy_jiao32!10!10.bmp,dimensioned_resource,10424,48,200,gzip,0,d0fa471ca30cf10edf1c18b0af25868b411870380e06d90499c9151532580361,20016efe808c808c
gwy/jjfb.mrp,jiao41!12!12.bmp,dimensioned_resource,10497,90,288,gzip,0,77d895f0cc9fa2a9ce2f46c90269ca7e5dc7088280102b747fe850d8c291ae78,1ff81ff81ff81ff8
gwy/jjfb.mrp,jiantou_x!12!10.bmp,dimensioned_resource,10615,45,240,gzip,0,2983645fa9322a3339df218d9ffe615aac39c764f5caf6ab60889139f026b609,0000c942359f6512
gwy/jjfb.mrp,slogo!157!58.bmp,dimensioned_resource,10685,11897,18212,gzip,0,919d94d541ad0863fd1e7b630475401cde0097801ccdc8a516ef48cb84773fa9,2000410861086108
gwy/jjfb.mrp,bigworldmapmodule.ext,ext,22612,8741,17360,gzip,0,baf01ab991598919473c35dc2e96c4574b10d62bf3c166c976a0437eda0ea3de,4d525047434d4150
gwy/jjfb.mrp,mainmenumodule.ext,ext,31380,15300,28712,gzip,0,ecad68139c8f94b379a8c88c7facf42da5b6778ea50cd5e8a99718a3b769b4cd,4d525047434d4150
gwy/jjfb.mrp,mailmodule.ext,ext,46703,14778,27692,gzip,0,faad4e9f796c26658e8d7a3a97b5f38f3161b202e264499bb4dec3bb9cb1b640,4d525047434d4150
gwy/jjfb.mrp,moduletest.ext,ext,61504,7200,15152,gzip,0,120fdea40196e29b9cbfb355ba460ac568c3d26e3f008da6ad7b838975bc7e92,4d525047434d4150
gwy/jjfb.mrp,chatmodule.ext,ext,68727,8857,15228,gzip,0,b1f7f8bc1846f164e7b7273931806118505086e20aedb29aab18714cbe455401,4d525047434d4150
gwy/jjfb.mrp,gezimodule.ext,ext,77607,4261,7356,gzip,0,59d39d323fe634f0aeb65076672fe501a557c473a86f02f3ad7aa69f2525d490,4d525047434d4150
gwy/jjfb.mrp,taobaomodule.ext,ext,81893,9352,16504,gzip,0,175a7268ae625ed9473b980ff59369159e6f1147fbb21df19fba4ac41c0a705b,4d525047434d4150
gwy/jjfb.mrp,gameattackmodule.ext,ext,91274,26089,47368,gzip,0,6f3afe7462a83168142f205a83da9fb22057c930c10feef8a652953d29f43b18,4d525047434d4150
gwy/jjfb.mrp,monsterstatemodule.ext,ext,117394,10663,18712,gzip,0,39e73ba119de641eee0ea2b738b26ef297d784ecad4137ceba9784403901e5fb,4d525047434d4150
gwy/jjfb.mrp,itembagshopmodule.ext,ext,128087,20439,43420,gzip,0,de9a51caaf5fa084fae2bbf45579c3a3cbcdf5fad3f0032b59fa8fec8dd06887,4d525047434d4150
gwy/jjfb.mrp,viewmanmodule.ext,ext,148552,10976,19436,gzip,0,9cc25245d323d87f3f9de9a3a091e3eb127ea940030ce7c1e72a8e91bed6897c,4d525047434d4150
gwy/jjfb.mrp,betmodule.ext,ext,159550,8327,14512,gzip,0,2bd3cee91fb99173522b6c83f33cdd1b885fb349874bfa0f8a4ce7b3e2bcb60e,4d525047434d4150
gwy/jjfb.mrp,monstermodule.ext,ext,167903,8870,19256,gzip,0,071e0a52f716500cac606c35d673c9fb6caead2e535f2cf2feb5aeb0415891ab,4d525047434d4150
gwy/jjfb.mrp,leitaimodule.ext,ext,176798,11387,21248,gzip,0,b0a9ac472cc958acf06ecb6a55a6a6dc59942d2943a45d5918ee1e6f1c9c2885,4d525047434d4150
gwy/jjfb.mrp,reg.ext,reg_ext,188201,1381,2472,gzip,0,6aa5e6be29634f0ecddd27a142ff9a55f922a9e51f06b0ef2bf029995c02fb9d,4d525047434d4150
gwy/jjfb.mrp,lianmengmodule.ext,ext,189609,17529,36216,gzip,0,3129f23b7b1038ab09a8017805ec662fbab9ae05fa65bcc0ccb8e2efa6ead93b,4d525047434d4150
gwy/jjfb.mrp,othermodule.ext,ext,207162,24412,46708,gzip,0,060159526b5a84d11e7eaa9cb2b9c030d40319dd0b812bd0edacc0e280f15d70,4d525047434d4150
gwy/jjfb.mrp,robotol.ext,ext,231594,161178,253420,gzip,0,55f66f1cca810ae7febe31af7e2dba8d00e6296a31aa7613f4aaf9ce5bb2fe82,4d525047434d4150
gwy/jjfb.mrp,shopmodule.ext,ext,392795,8820,14836,gzip,0,96736090d5f8b987df218dfbfe0e8f00f35c13f440b281ad3f468fb979409b9c,4d525047434d4150
gwy/jjfb.mrp,itemhechengmodule.ext,ext,401645,12957,25136,gzip,0,fa4ffb041f016c82ac21745ea35e1e00bb93a218e0ca625f85b2b5c7e9504a06,4d525047434d4150
gwy/reglogin.mrp,start.mr,start_mr,610,1018,2490,gzip,0,ff67eea7e6eed10e3871bd465953e7137001e2495b1eb13309c56db8659bfc7c,1b4d525080010a00
gwy/reglogin.mrp,netset.bmp,media_resource,1647,325,1456,gzip,0,1f33fac8c9c28c1bc0a9dc61ad5f70eaa9712fc88b1131153df07d9260e6cbc0,1c25120bcc01cc01
gwy/reglogin.mrp,select_h.bmp,media_resource,1993,421,684,gzip,0,3c821ff83dabc7c9f89dbb7bebc56df8cfe69644b30e1ec7670286e854eda191,1c251c251c251c25
gwy/reglogin.mrp,menu_h.bmp,media_resource,2433,289,672,gzip,0,504be9c9e61ed6066789e58e093183b3b4e57a5951fc3b5a22c67de651329830,1ff81ff81ff85102
gwy/reglogin.mrp,arrow.bmp,media_resource,2740,130,450,gzip,0,c1a1d56c264bc6e701b47a0a5b6eba478dbb366eb2300dce693896b6e7a53feb,8631c739c739c739
gwy/reglogin.mrp,button.bmp,media_resource,2889,83,448,gzip,0,b0db55f626095775cae5d6d5e7a945d12832efcc8567b0e0106f5706ab62fd38,783c783c783c783c
gwy/reglogin.mrp,checkbo.bmp,media_resource,2992,92,576,gzip,0,a837ad9b0c46d4e73638fe4e9c32dc2cfc2ff5b06d68772fa11ddd38108b9168,1844184418441844
gwy/reglogin.mrp,msgbox.bmp,media_resource,3103,481,800,gzip,0,672379b1f8cceda85eec8f6bec2db4680934c54aee78fd33423869af52984efe,1ff81ff81ff83603
gwy/reglogin.mrp,setting.bmp,media_resource,3604,498,2736,gzip,0,1821a390cdbefd6d7a791e2f7a59c3c79c448581d0c7d9907ed1df1d1092f04a,1c25765491029102
gwy/reglogin.mrp,func_set.bmp,media_resource,4123,318,1456,gzip,0,455e82fa156dc70d037bc1882cdacd6f0af768dd2f30ab88e13fa37b4a8c4949,1c25120bcc01120b
gwy/reglogin.mrp,select.bmp,media_resource,4460,277,684,gzip,0,4a4193e7820d03316d6f0b40678e84c0b6ff3b4f13704a646af3b01c17a9ae7e,1c251c251c251c25
gwy/reglogin.mrp,reg.ext,reg_ext,4753,734,796,gzip,0,c87201c35624ec280d6b6318f73072a3a0d826df75758f21d8d81f388af5e36d,4d525047434d4150
gwy/reglogin.mrp,reglogin.ext,ext,5508,25484,36528,gzip,0,013e8628c22f604ecae54c455f26f74042d61824f09f289494c28d07f01476de,4d525047434d4150
gwy/resmng.mrp,start.mr,start_mr,361,1018,2490,gzip,0,ff67eea7e6eed10e3871bd465953e7137001e2495b1eb13309c56db8659bfc7c,1b4d525080010a00
gwy/resmng.mrp,headpic.bmp,media_resource,1399,3537,8000,gzip,0,18933002b4df48d561051c1b5b887c46e6680e328db78e4ca06930d7a94aecdb,1ff843a205a9c8f3
gwy/resmng.mrp,reg.ext,reg_ext,4952,774,912,gzip,0,80943cdee7add02bb52b35b63d791d92567a34a1a013bf331df745e5597c75f2,4d525047434d4150
gwy/resmng.mrp,resmng.ext,ext,5745,8865,12200,gzip,0,19468df6a86660afd2585ce570d140a0ca11531031201acaa4841f397d3df8e3,4d525047434d4150
gwy/roomlist.mrp,start.mr,start_mr,335,1018,2490,gzip,0,ff67eea7e6eed10e3871bd465953e7137001e2495b1eb13309c56db8659bfc7c,1b4d525080010a00
gwy/roomlist.mrp,reg.ext,reg_ext,1369,739,796,gzip,0,8b3add08e02ce45ddd81da1a47eef3aaccde947ae0a731a2d281cd27c654f018,4d525047434d4150
gwy/roomlist.mrp,roomlist.ext,ext,2129,11498,17284,gzip,0,e039e91912b01712f4757b5f26bb5abb0b6ed3f9409e520ce0f5bab42b39e5f3,4d525047434d4150
gwy/sanguo.mrp,start.mr,start_mr,7625,1392,3435,gzip,0,e318e580d789041a524a656038fcf38c6be35f9abba48902c8d4580ea8563ed7,1b4d525080010a00
gwy/sanguo.mrp,gnk_l1.bmp,media_resource,9036,1767,6080,gzip,0,ccd753ab7dece34fa832b195546ec78770d0ab039a99aea7f68ae4785b667d19,4d734d734d734d73
gwy/sanguo.mrp,gnk_l3.bmp,media_resource,10822,1978,6080,gzip,0,0636b7a77c94559af828b5229137f6e37c6cdf01207324b30236053fd71f0dda,4d734d734d734d73
gwy/sanguo.mrp,gnk_l2.bmp,media_resource,12819,1945,6080,gzip,0,5ad4a324de70be1835ea784b48a7ffaa8b124e2ee02e40443ba82dbc96b5f77f,4d734d734d734d73
gwy/sanguo.mrp,gnk_s1.bmp,media_resource,14783,3560,6080,gzip,0,0fcfa4e0c98190bff471fc13e59d82067a7f632e704e0e037358366ad57fbdac,8f638f638f638f63
gwy/sanguo.mrp,gnk_s.bmp,media_resource,18361,9461,18240,gzip,0,ee849cb23a72cfe2434e7a629529ca3ea7fbb07cc985afc9c9eb8b848ac660b9,8f638f638f638f63
gwy/sanguo.mrp,site_xt.bmp,media_resource,27842,307,2752,gzip,0,0cf833c6e76d69936758d4fcaecda61265e63031afbe266e9b6a808b0c412d3e,dfffdfffdfffdfff
gwy/sanguo.mrp,h_9.bmp,media_resource,28165,1110,4140,gzip,0,c12790b1345dd220611dacba12c96dce578225fcb47d39afda4606d2819c4377,1ff81ff81ff81ff8
gwy/sanguo.mrp,hy_but.bmp,media_resource,29294,2302,5952,gzip,0,f72a47beb2b7cfe0b38a63cf3a38391fe814cca35dbbeb3a9d349a435c6f5928,8308830883008308
gwy/sanguo.mrp,h_5.bmp,media_resource,31612,1132,4140,gzip,0,492abb69bc99cb742d18cac42e8ce9133d1c9d26d4deb62b283ff07cb090022f,1ff81ff81ff81ff8
gwy/sanguo.mrp,f_bg5_2.bmp,media_resource,32764,2431,9600,gzip,0,c2acf516ecbbf430fbd9384ea74c2c858c07d3ec1b14ce651df8748422cbdf00,8144c154c1548575
gwy/sanguo.mrp,h_7.bmp,media_resource,35211,1064,4140,gzip,0,3fdb1116e604d04dad0da8107c801fb83f53b3b0b736c1a3270f3cda49391bec,1ff81ff81ff81ff8
gwy/sanguo.mrp,h_8.bmp,media_resource,36291,1136,4140,gzip,0,756e166516566475a48ce3c3b418bdbee21d8d4ed22a0526ba0a0f645b2987ee,44ff1ff81ff81ff8
gwy/sanguo.mrp,h_1.bmp,media_resource,37443,710,4140,gzip,0,d37eda66fd2be56957659948d4c8c66ee0468b4f13bc1f1b88a9b0fd4245d1e7,1ff81ff81ff81ff8
gwy/sanguo.mrp,h_2.bmp,media_resource,38169,941,4140,gzip,0,a62061c5ba25821ac61e0073e90ef9858868a6bda3ad5057f4f8e7232039723c,1ff81ff81ff81ff8
gwy/sanguo.mrp,h_3.bmp,media_resource,39126,896,4140,gzip,0,886fe675ecb56326d19da752ca907a210c794d598fd1f5fb22816b09065b68ec,1ff81ff81ff81ff8
gwy/sanguo.mrp,h_4.bmp,media_resource,40038,991,4140,gzip,0,d33e05bc4ca11e2e17ba932caae8a327fe5e40f337a9d1493abf7d4b8dc8e437,1ff81ff81ff81ff8
gwy/sanguo.mrp,ss_m_8.bmp,media_resource,41048,514,920,gzip,0,881f104e6ecf2a0728c763540fc185b88268782085127f3f845fc3bd07673cc3,1ff81ff81ff81ff8
gwy/sanguo.mrp,ss_m_9.bmp,media_resource,41581,640,920,gzip,0,16890261c156f362269bb52925d39b0346ec66b36c5c54f8eaea21f59ba5d362,1ff81ff81ff81ff8
gwy/sanguo.mrp,ss_m_10.bmp,media_resource,42241,470,920,gzip,0,315355485ae4dc2f1e9db9adc08529f4412662039da872362ebb3938b0b2d272,1ff81ff81ff81ff8
gwy/sanguo.mrp,ss_m_11.bmp,media_resource,42731,519,920,gzip,0,5d449706e1bbb7f98d38f8fc00dd6a44048fa87137515252ea7936bfd3a18d60,1ff81ff81ff81ff8
gwy/sanguo.mrp,ss_m_12.bmp,media_resource,43270,600,920,gzip,0,5dc5f7ea4c06e262fa77b19337db05d8f419ed2786dec40b73f1124ae1249db0,1ff81ff81ff81ff8
gwy/sanguo.mrp,ss_m_13.bmp,media_resource,43890,533,920,gzip,0,4b24b00fadc765081c15377304b9cc052430dab5f29b8f421e17bd1dbd8cb773,1ff81ff81ff81ff8
gwy/sanguo.mrp,ss_m_14.bmp,media_resource,44443,696,920,gzip,0,56afa0e7dadc8a6702199b6ec6fe7035aff5170f8d33de87118fca5975ad1ab6,1ff81ff81ff81ff8
gwy/sanguo.mrp,ss_m_15.bmp,media_resource,45159,554,920,gzip,0,c6beaf11a09df68ee1ffc13e2c470435b88ed5bee1d8a0553a9e5eff0644cef0,1ff81ff81ff81ff8
gwy/sanguo.mrp,ss_m_16.bmp,media_resource,45733,562,920,gzip,0,d62006ff69c89e9205b8ef7f89dc2bc40f750e73f826292460a53573dbf4cebc,1ff81ff81ff81ff8
gwy/sanguo.mrp,ss_m_17.bmp,media_resource,46315,499,920,gzip,0,de8256aa0b5cdab4e6a38a674149cca40076dc55cd3a0f3ded85fcad533ee9ae,1ff81ff81ff81ff8
gwy/sanguo.mrp,r2n_f.bmp,media_resource,46832,138,504,gzip,0,6f92a32ddfcd3db13afe94cc77154abb353042a8b7d0ff0e427c373a92c8e3cb,1ff81ff8c920d57a
gwy/sanguo.mrp,r2n_b.bmp,media_resource,46988,337,1952,gzip,0,51742ef6a9a889cceb5b57b10a3d8c509017936c38e08c2c3eea86f0b49821ae,1ff81ff81ff81ff8
gwy/sanguo.mrp,f_bg4_3.bmp,media_resource,47345,2329,4800,gzip,0,24a334b09a7f87568bb8b1f3b2cc5e31ff2a03905829bed57670f8fdf9bf929d,421982218221c329
gwy/sanguo.mrp,f_bg4_2.bmp,media_resource,49694,1965,9600,gzip,0,b9f0d60a0356bbea58f81c3a1555035862da49b37f87e8d73cf4e831a6154c5d,0f74496b496b8a3a
gwy/sanguo.mrp,f_bg4_1.bmp,media_resource,51679,2195,9600,gzip,0,7fff498abaff78ae593ceb53ffad1e4153e62bb7160c75654910a6dd7cefbb5b,453ac431c4318221
gwy/sanguo.mrp,r1_f.bmp,media_resource,53891,249,740,gzip,0,ee28f0e93e6537468f7627f8f73abaf5346aea2a7ff85ca97afaba38dbcdc50f,1ff81ff81ff81ff8
gwy/sanguo.mrp,r1_b.bmp,media_resource,54157,521,1800,gzip,0,f86fbee9de3cf2a325a311e6ec28428d9ea7a5e3af81de8b452d23065884176d,1ff81ff81ff81ff8
gwy/sanguo.mrp,f_bg4_5.bmp,media_resource,54698,3105,11200,gzip,0,bbae2acdda7b8051bc2d8ac0bad600286afbf120473994a3a80e189992fdd8f8,caaccaaccaaccaac
gwy/sanguo.mrp,f_bg4_4.bmp,media_resource,57823,2886,4800,gzip,0,5aea91968dc8d962235d261a4f78dc43180cf95bc932da0d7440771aaffbf890,c021433a433a4232
gwy/sanguo.mrp,r2_f.bmp,media_resource,60726,225,504,gzip,0,3be8cd4b9c607ec37e46ea98c69756235affe6457e5beb8ff4d35e8714f16ba8,1ff81ff802094210
gwy/sanguo.mrp,r2_b.bmp,media_resource,60968,465,1952,gzip,0,1ed664a559020ba6440739e1e2d8a4fc75290869d94daee7884515750321b5bf,1ff81ff81ff81ff8
gwy/sanguo.mrp,r1n_f.bmp,media_resource,61451,183,740,gzip,0,abeed239de93d4c610fa6123d25b518ad0f5792c0ca9331b95b59ba30cfb1106,1ff81ff81ff81ff8
gwy/sanguo.mrp,r1n_b.bmp,media_resource,61652,432,1800,gzip,0,1dddc7ebaf81bfe7eb73aba380811ecc7f807c7e96099c82013249f8674f8529,1ff81ff81ff81ff8
gwy/sanguo.mrp,f_bg6_3.bmp,media_resource,62104,2130,4800,gzip,0,28697880db56d0e1543ac811b01a9329269123393c68d6f0368a388fe183350c,8639863186318631
gwy/sanguo.mrp,sc_bg_1.bmp,media_resource,64254,7274,37440,gzip,0,9202ae5545383af38adf4fd016794cd2311dd606507714dde72511ef216c5852,4208410841084108
gwy/sanguo.mrp,r2zn_h.bmp,media_resource,71547,553,882,gzip,0,b7c65158710de17ef6fb7cd0fb49af5638f3c8864789facedcecf3c9a17fd21c,1ff81ff81ff81ff8
gwy/sanguo.mrp,r3zn_h.bmp,media_resource,72119,552,882,gzip,0,1030ecfe54369a538545fda8b75487b7315032cecfa41f99b14771dd0b773f04,1ff81ff81ff81ff8
gwy/sanguo.mrp,dead_fl.bmp,media_resource,72691,962,9546,gzip,0,4d8087a97e988bf86b2c9a2f360ee578bb84355646f95818295decde1aa84085,1ff81ff81ff81ff8
gwy/sanguo.mrp,h_6.bmp,media_resource,73669,1128,4140,gzip,0,c78e4da045c1f9effaad6a091aa888cf4f64373b2bfa10a8afd896ee4613e03c,1ff81ff81ff81ff8
gwy/sanguo.mrp,f_bb.bmp,media_resource,74814,1602,17632,gzip,0,d7b6827e4f8846cf6a5fdb5220319ac4efecc3fedacaa9176f7da0273b0a425e,0000000000000000
gwy/sanguo.mrp,f_sl.bmp,media_resource,76433,1859,17632,gzip,0,1d6b783692980a051a71a1e91d9ab7a8a013ba06bfe0d04cf3b8746d5d749bb9,40e440e440e440e4
gwy/sanguo.mrp,f_sd.bmp,media_resource,78309,2416,13632,gzip,0,7ac4c38c7dcc67a379a2847db1a8947ea4082754cad89c7d5ad3de992a693090,1ff81ff81ff81ff8
gwy/sanguo.mrp,blood.bmp,media_resource,80743,209,1672,gzip,0,3539a8671a6200008428b0c5cbc5bf57ea8f81abe9849c08b0188703c53f2ba0,1ff81ff81ff81ff8
gwy/sanguo.mrp,r3n_b.bmp,media_resource,80970,441,2010,gzip,0,a5a285844c870a531476324ad3762baf872e0e48c62cb169a3a69f03e5668ce0,1ff81ff81ff81ff8
gwy/sanguo.mrp,r3n_f.bmp,media_resource,81429,158,448,gzip,0,5b014260cf80341595f1bee0c7337d175298ac982c431e48db90187a87d26074,1ff81ff81ff84138
gwy/sanguo.mrp,r3_b.bmp,media_resource,81604,396,2010,gzip,0,9d1a37092ae24e4195716dcf8bf4432df720ffd9b113df7386ed470efaf8fefb,1ff81ff81ff81ff8
gwy/sanguo.mrp,r3_f.bmp,media_resource,82017,161,448,gzip,0,c3c581708d2261c976d2f7f9e57d83774842331ea696b4937ccd6d1c552c3bc3,8929d07355a55de7
gwy/sanguo.mrp,site_m4.bmp,media_resource,82198,559,920,gzip,0,0a97b7087f2da3fd5ffa28d70378e251c4a6e72da811dc50192558d1b627c45e,1ff81ff81ff81ff8
gwy/sanguo.mrp,site_m5.bmp,media_resource,82777,276,920,gzip,0,f4fe282456c2cd0ce0d6bb3ff80d59e0761c76860c77c6cb6f646158d67725e7,1ff81ff81ff81ff8
gwy/sanguo.mrp,site_m6.bmp,media_resource,83073,498,920,gzip,0,2a3f3ce8abc1ccee87cc814376151301c7812bc0ce62758f13a16b70d8b7b415,1ff81ff81ff81ff8
gwy/sanguo.mrp,ma_22.bmp,media_resource,83589,5245,12800,gzip,0,3e2ef168767ef11def308119c8f7c164fd433fdc159ae081e740d02e62d00548,8def8cef8cefcdef
gwy/sanguo.mrp,th.bmp,media_resource,88849,58,240,gzip,0,27f00fcd8062b8476f54675bb0b684fb33329a35955cc820711a785d2be0d7ac,dfffdfffdfffdfff
gwy/sanguo.mrp,site_m1.bmp,media_resource,88927,669,920,gzip,0,0bdc166316d273b4520be08aa1dc90b9baa1a9a215f6959aaf8808b0413ac105,1ff81ff81ff84268
gwy/sanguo.mrp,site_m2.bmp,media_resource,89616,614,920,gzip,0,ec284e00cd80c2605c4a24507cb809bc202b372be1c79b09fe5b5beade961c42,1ff81ff81ff81ff8
gwy/sanguo.mrp,site_m3.bmp,media_resource,90250,365,920,gzip,0,48dd44d686f2b159122e3ec1d2a24d8546c43652a7d8a194bb5f85994dee091b,1ff81ff81ff81ff8
gwy/sanguo.mrp,site_m8.bmp,media_resource,90635,161,920,gzip,0,29c135c2a18ed20be40b4c08f0adad4bb34f8bb46b205110a112d69e2c821e90,1ff81ff81ff81ff8
gwy/sanguo.mrp,site_m9.bmp,media_resource,90816,335,920,gzip,0,684f6656513f411a578553ba8fbe1496ed401bb003ceeca936e76940a7444317,1ff81ff81ff81ff8
gwy/sanguo.mrp,ma_23.bmp,media_resource,91169,5897,12800,gzip,0,91b5e2d54fee3ed9518d529b454b52192a98cdbaf09e07926da6f9eaff144182,485a485a47524752
gwy/sanguo.mrp,ma_24.bmp,media_resource,97084,6070,12800,gzip,0,3d96036affad1079f99118f026f19ad11a711b7b8c1a8e11e0b7ec84d4c2b3ea,94ed95e5d5edd6ed
gwy/sanguo.mrp,ma_21.bmp,media_resource,103172,7502,12800,gzip,0,899269a99934bbe1819e655d37cf68a0fd4b29c935e44d420f3392df7bd4920f,4d4a0d4a4a638784
gwy/sanguo.mrp,site_m7.bmp,media_resource,110694,444,920,gzip,0,26266b72cbfd2bc62cf6fa6f5faad3ab94bfe75d332ad4c8a54699a8725480a5,1ff81ff81ff81ff8
gwy/sanguo.mrp,ma_2.bmp,media_resource,111155,5712,12800,gzip,0,817b70c494741e8ba4c732c1c45a819e7fc672dec4f66ae159905e7523f7b78f,9484537c94849484
gwy/sanguo.mrp,ma_1.bmp,media_resource,116884,4233,12800,gzip,0,3f260ac2d20f074ffcabcf1f367d81297a454b557199be05cf1b9d0106418aec,5e9e5e9e5e9e5e9e
gwy/sanguo.mrp,f_bg20_6.bmp,media_resource,121138,1644,11200,gzip,0,91b3833eb42744297371825c1f9b43b659872514c869b33ccb69c9adf91bb10e,0191019101910191
gwy/sanguo.mrp,gn_sel.bmp,media_resource,122801,252,1540,gzip,0,67b280fd776f68e4396ebeaf7830d570aca92c795a757dc76726f4022b95f94b,dc041c051c051c05
gwy/sanguo.mrp,f_bg20_4.bmp,media_resource,123074,1813,4800,gzip,0,b26ad6f46959c16b004b4918c55eb57b506d02af7551b41e420fcae66e236db7,51de802980298031
gwy/sanguo.mrp,f_bg20_5.bmp,media_resource,124908,1634,11200,gzip,0,781e92f1bec97308ef50d0f429f917481d3dca66ac6289c40ba72005388faf2d,0191019101910191
gwy/sanguo.mrp,f_jt.bmp,media_resource,126559,82,242,gzip,0,5aeae2c1cadc60286a54e37464f1da44a5e9ba1f16474269ce7b67986ffec649,1ff81ff81ff81ff8
gwy/sanguo.mrp,fire.bmp,media_resource,126658,915,5808,gzip,0,f34d6101d9df0ca81b54f0e5d9a71db577a8daca715224c282997d5ca0552175,1ff81ff880d01ff8
gwy/sanguo.mrp,yz.bmp,media_resource,127588,68,216,gzip,0,397a774db1a03adc1aad1690dd6b8feb630f07ee35d182807ea1fbc32a7ab877,1ff81ff81ff81ff8
gwy/sanguo.mrp,fg3.bmp,media_resource,127672,1630,10956,gzip,0,e615e64464412a684fb0bd1a1e823b6a1100398acbb4f6a8761fba2cee3bb5f5,1ff81ff81ff818c0
gwy/sanguo.mrp,f_stat.bmp,media_resource,129321,715,4484,gzip,0,b3be29710a5b4ba0921bd103442d96ccc7555c62d2debb93500e4dcadb6ccda7,1ff81ff81ff81ff8
gwy/sanguo.mrp,lei.bmp,media_resource,130052,157,616,gzip,0,aab992d434593b0ff7cf985c67793f172317e6fae0313e3d09c9a8eaf95b0d1a,1ff81ff81ff81ff8
gwy/sanguo.mrp,qiang.bmp,media_resource,130227,85,168,gzip,0,f12788d36b5434120a27da285ab380d4d0e1b8fa0149ce947ffde541026cb349,1ff81ff81ff89895
gwy/sanguo.mrp,tit_m.bmp,media_resource,130330,964,9384,gzip,0,a03f8b7cd02cff87eaee88cc49b185b39c2d9516126b852a80deeaee057f2ce6,1ff81ff81ff81ff8
gwy/sanguo.mrp,pi_fl.bmp,media_resource,131312,731,6020,gzip,0,cc6e30743a170218299840ef24e418c1bcbfc1c6395a78bc4f23d914f578afcb,1ff81ff81ff81ff8
gwy/sanguo.mrp,dead_1.bmp,media_resource,132062,390,992,gzip,0,9fb52c5856841f950f09bffaaf8060fe64049a64f9ce5add761fcfc4fbdc7b55,1ff81ff81ff81ff8
gwy/sanguo.mrp,wz.bmp,media_resource,132467,192,650,gzip,0,53a70557eed08b0b096561e1bf344e6a914ffc327dfad605489a0404c6803a5e,1ff81ff81ff81ff8
gwy/sanguo.mrp,t_img13.bmp,media_resource,132679,1946,7320,gzip,0,3928a91873deae44ce7a4725c33ef7682bed72a12769a6b87bb9480ce5e4cd17,c158037a037a848a
gwy/sanguo.mrp,t_img14.bmp,media_resource,134645,1459,7320,gzip,0,33abe5e8c2e03021d6fa7468cb725b766b49e50ac1dfc834bf501777f32244e9,c95ac95ac95a0b6b
gwy/sanguo.mrp,t_img11.bmp,media_resource,136124,1963,7320,gzip,0,6ad7f3daf75f6ec501dbd640ea859f2548360b90a1e04415d63a110ee49de466,4942093209324911
gwy/sanguo.mrp,t_img12.bmp,media_resource,138107,2475,7320,gzip,0,5f4f4f37e22115a1235ce5997acc03180852b26a88e702b6899b699f3be50e13,82ca82ca82ca00ba
gwy/sanguo.mrp,t_img9.bmp,media_resource,140601,1859,7320,gzip,0,7a26e267e663422092bd61e4228853243e77c514f6098f72d6b0d25f193c883c,11534e3a4e3a4e3a
gwy/sanguo.mrp,t_img10.bmp,media_resource,142480,1767,7320,gzip,0,08390e365aad999ac1ce9f7e27fe450eef11882f0afbe13c81b6f9e0ad56c670,8fe58fe58fe58cd4
gwy/sanguo.mrp,t_img7.bmp,media_resource,144266,1924,7320,gzip,0,6b92d977eba63d327ae399bf61b08aab810468920751d35d69e1c27bde4f9572,cbbc0cbd0cbd0cbd
gwy/sanguo.mrp,t_img8.bmp,media_resource,146209,1299,7320,gzip,0,8ca9e2c85abbbe8acee16d2af1c2592ab04302820159386e643788071c03b838,1485148514851485
gwy/sanguo.mrp,t_img5.bmp,media_resource,147527,2674,7320,gzip,0,d9e35cd5a47e98002a9e9637b167d274c407cacb06c7f99c0d422a365fe6bfa4,89850b8d0b8dc763
gwy/sanguo.mrp,t_img6.bmp,media_resource,150220,2140,7320,gzip,0,3b5a4baf2a47625a45a81c3aec9295d9719cac54634759fdca33fda607a43943,11b590a490a48d83
gwy/sanguo.mrp,npc_hgln.bmp,media_resource,152381,420,5000,gzip,0,3d9b4e8c0a4d2ca442c46d9f3273ec6d07167ace08ae7115d5c25a910817e183,0839083908390839
gwy/sanguo.mrp,npc_jt.bmp,media_resource,152820,367,2352,gzip,0,5b695a01821ae0311a069b0381fdb2052b10a316d2aa58310635bba9092dc604,0070007000700070
gwy/sanguo.mrp,npc_ico.bmp,media_resource,153207,411,1936,gzip,0,77f0d40375ea5767d8acdb94707b30a1621741155bc16a15bd8a0821f7cc0a51,1ff81ff81ff81ff8
gwy/sanguo.mrp,gln_but.bmp,media_resource,153638,2026,7200,gzip,0,046ad60649f0a60d4952969491fc0fc95ed7136c1d28c6e7bad20fad18994478,0000000000000000
gwy/sanguo.mrp,sr_tit_m.bmp,media_resource,155685,4454,10080,gzip,0,3c0ba97c15d6ab1b4f006cdff80bb97d1f7c7dce4c03bd282a947674f2b33a57,94ff94ff94ff94ff
gwy/sanguo.mrp,cr_tit_m.bmp,media_resource,160160,4288,10080,gzip,0,9be8324dd557d1a4f061203a5d85a3fa759dcc58751fd76db91ffe2754cdb03b,94ff94ff94ff94ff
gwy/sanguo.mrp,cr_tit.bmp,media_resource,164467,4555,8400,gzip,0,ab837a90b5db3f34372d656b4d7f4ba39c0a9cfcc0e0fa53c838cc22c7204de5,49bc49bc09bc09b4
gwy/sanguo.mrp,sr_i_2.bmp,media_resource,169041,5294,14308,gzip,0,ce9ddf2fc185577c58766e82203436019b6014d5012dc057e82e025c01f65690,8018801880188118
gwy/sanguo.mrp,sr_i_1.bmp,media_resource,174354,2824,10658,gzip,0,070321344c4561d4d72b7fb0d838400304a7527c841385e6bfe332bb4b47bb3b,0231001800180008
gwy/sanguo.mrp,f_bg9_4.bmp,media_resource,177198,1835,4800,gzip,0,cef5c3522d97a96370341056d744ede3ddd32ee6a5dbbecdd6ea0e7ae360a021,0c84887b887bc983
gwy/sanguo.mrp,f_bg9_5.bmp,media_resource,179053,2962,11200,gzip,0,ddb9b5c9010b1faedf4198f5cc894e8c0ffea42abfd004a7d84312dd51510b53,0e6c0e6c0e6c0e6c
gwy/sanguo.mrp,f_bg8_6.bmp,media_resource,182035,3640,11200,gzip,0,04c8a031706973731ebc3b00b6b22ebf87eeaf75a3503e398b2d991778b0a19b,07b607b607b607b6
gwy/sanguo.mrp,f_bg9_1.bmp,media_resource,185695,2749,9600,gzip,0,0f9fabc4ed7eb9424e74d2ff57ca608928bc0ebcb60d8b0b67b3a1d28a5d57e8,53ae51b651b693be
gwy/sanguo.mrp,f_bg9_2.bmp,media_resource,188464,1678,9600,gzip,0,c9d37ea8a59094288eca9b3b9a5e2bbb7ad3f3fd411c2222a797d54474a0cfeb,1b8e1b8e1b8e1b8e
gwy/sanguo.mrp,f_bg9_3.bmp,media_resource,190162,1938,4800,gzip,0,764fd58771c15cb7a1f11e9cbc23bbf80cdc4473e9484dc0fc3a41cd56005ad6,55b613b613b6d3b5
gwy/sanguo.mrp,f_bg8_2.bmp,media_resource,192120,1478,9600,gzip,0,5aec8dd871ba950e7ce3ab45f8902055dd3c785e1f700ddc0d5bce9b7c6a3cc3,18ce18ce18ce18ce
gwy/sanguo.mrp,f_bg8_3.bmp,media_resource,193618,1520,4800,gzip,0,e79c6300c8be1047204174daa224e1b9520f53adf009003d1a44dee387631f5c,d374136d136dd36c
gwy/sanguo.mrp,f_bg8_4.bmp,media_resource,195158,2131,4800,gzip,0,868a92b6f18930a97b64eb8b054ed805ac6e5307fbdf5417fa7a6e571159f2b7,538d538d538d538d
gwy/sanguo.mrp,f_bg8_5.bmp,media_resource,197309,3381,11200,gzip,0,06cbc0817fcb328899894028f7190e315fae950125a55258bea8d3fd67464185,07b607b607b607b6
gwy/sanguo.mrp,map_zz.bmp,media_resource,200709,140,726,gzip,0,67f07e7250c259bae02ee733bc20032bbd0cec445bbec185d5a19f6080ef4b0d,9ef79ef79ef79ef7
gwy/sanguo.mrp,map_zzn.bmp,media_resource,200869,41,72,gzip,0,05cd74debe9fc610d937a0f0013afd1040d3d49dbe5a66b25a539173f5232e7a,1ff800f841f800f8
gwy/sanguo.mrp,r1zn_h.bmp,media_resource,200929,546,882,gzip,0,05f77f167075cdc6559d3de3610560f19447b6be89d7aab8925ae26d12d90363,1ff81ff81ff81ff8
gwy/sanguo.mrp,r3z_h.bmp,media_resource,201493,536,882,gzip,0,e8f222dc885282fe0a7e11d52c88c42c005b0c2c93c1093ec8ef59270f1b7db2,1ff81ff81ff81ff8
gwy/sanguo.mrp,r2z_h.bmp,media_resource,202047,500,882,gzip,0,37545ecb6bd62a6943c3118165fe6d170c611d67c2dee571a33618c8311441d4,1ff81ff81ff81ff8
gwy/sanguo.mrp,r1z_h.bmp,media_resource,202565,403,882,gzip,0,fda834e6a13ca858b7c7ce0df5123262e59087e5146f2d2384dafd6ec1ed3416,1ff81ff81ff81ff8
gwy/sanguo.mrp,map_ico.bmp,media_resource,202988,364,1204,gzip,0,d4f277aae2cf8361ce10c73bb2d4fa18f97b5247d87b73f1a86c78d223b9c87d,1ff81ff81ff81ff8
gwy/sanguo.mrp,fig_rep5.bmp,media_resource,203373,530,1050,gzip,0,81dec5348dc90fc18350bc6cc68ddf7487f70b104d553648621a84e9297d4924,1ff8003940514049
gwy/sanguo.mrp,sc_bg_3.bmp,media_resource,203923,8025,37440,gzip,0,0a62e289b262ac22cc5a65a1b2d627f8f1db747fc189bafdb9c713ecafcae8f9,4208410841084208
gwy/sanguo.mrp,fig_rep3.bmp,media_resource,211969,230,750,gzip,0,3495f3600747275eb62fec7d6dc057b2738c4451226c09a99a846e9036fc1ac4,1ff81ff8c210c210
gwy/sanguo.mrp,fig_rep2.bmp,media_resource,212220,347,1150,gzip,0,9b3b384a4f2a9733c162bdcf88cbd9df5626d6037436f7d6e2d777fe8bb27fb6,1ff81ff8c210c210
gwy/sanguo.mrp,fig_rep1.bmp,media_resource,212588,260,1320,gzip,0,1af0e6657792cc42ddb77ce9b0b6acc5efb833d2e2de1afcfa2a5a7a47727807,1ff81ff8c210c210
gwy/sanguo.mrp,n2_h.bmp,media_resource,212865,357,882,gzip,0,ca56cb1c641122b40392ccc8a3cd2bbe16e060066efb53525a29a16a9372396e,1ff81ff81ff81ff8
gwy/sanguo.mrp,n3_h.bmp,media_resource,213239,356,882,gzip,0,99ea9829b7cbee709b7ca4cf6dd3da8317336805a4a8db3ee60f065c1cfac864,1ff81ff81ff81ff8
gwy/sanguo.mrp,n1_b.bmp,media_resource,213612,453,1800,gzip,0,41fd8eec9be7d63b9b350ab2f14bd1024b0d921fc565c74b6814c25e5d034808,1ff81ff81ff81ff8
gwy/sanguo.mrp,n2_b.bmp,media_resource,214082,465,1952,gzip,0,1ed664a559020ba6440739e1e2d8a4fc75290869d94daee7884515750321b5bf,1ff81ff81ff81ff8
gwy/sanguo.mrp,n3_b.bmp,media_resource,214564,396,2010,gzip,0,9d1a37092ae24e4195716dcf8bf4432df720ffd9b113df7386ed470efaf8fefb,1ff81ff81ff81ff8
gwy/sanguo.mrp,n1_f.bmp,media_resource,214977,216,740,gzip,0,37f2c23d322573b07330ff86c5e72534cbacf012ed3c2690e761852e9307e936,1ff81ff81ff81ff8
gwy/sanguo.mrp,n2_f.bmp,media_resource,215210,225,504,gzip,0,3be8cd4b9c607ec37e46ea98c69756235affe6457e5beb8ff4d35e8714f16ba8,1ff81ff802094210
gwy/sanguo.mrp,n3_f.bmp,media_resource,215452,161,448,gzip,0,c3c581708d2261c976d2f7f9e57d83774842331ea696b4937ccd6d1c552c3bc3,8929d07355a55de7
gwy/sanguo.mrp,gln_b_jt.bmp,media_resource,215634,347,1824,gzip,0,aaee9cd152b7f8a8247713aef734aa89d3fe4b3c2eab58b265f1404c83e6a49d,1ff81ff81ff81ff8
gwy/sanguo.mrp,gnl_bk.bmp,media_resource,216000,1330,4180,gzip,0,fcb3ffbb29037ac6203b02b70286b61a7af8fa51b8a950402fad1725186cd254,0c630c634d6b1084
gwy/sanguo.mrp,r1n_h.bmp,media_resource,217348,393,966,gzip,0,e6e0a9422fa99cd6f2a7ae3839ccb4c9f80aa4dff98e237e255c2abef30090dd,1ff81ff81ff81ff8
gwy/sanguo.mrp,r3_h.bmp,media_resource,217758,346,882,gzip,0,025ef501341d27499973f98677c0ec75c0ff5477287258ea0cb88d3fd1bfae98,1ff81ff81ff81ff8
gwy/sanguo.mrp,r2_h.bmp,media_resource,218121,421,882,gzip,0,e4c106c2a325c51766e718fa0f83528c77013455a3a862de7db88c15c851fc96,1ff81ff81ff81ff8
gwy/sanguo.mrp,r1_h.bmp,media_resource,218559,531,966,gzip,0,0c243454476b9629a3454a613ecbe23b9884a1929d45b1be5d44a6dbe8445695,1ff81ff81ff81ff8
gwy/sanguo.mrp,r3n_h.bmp,media_resource,219108,464,882,gzip,0,8967238ef583961b88c999d4fbe740a5a7eeeb3527fc0583560499599e5188cb,1ff81ff81ff81ff8
gwy/sanguo.mrp,r2n_h.bmp,media_resource,219590,324,882,gzip,0,d86ccfb792c3d2e3b192322439ed0b12617dc4d16aaeb29bef1c42a07305b911,1ff81ff81ff81ff8
gwy/sanguo.mrp,num.bmp,media_resource,219930,369,2178,gzip,0,22c9990a8eddc7185a2249ea2f2a250ee7d60c97e6d9c826b304d08988c33155,1ff81ff800000000
gwy/sanguo.mrp,f_bg5_6.bmp,media_resource,220319,3468,11200,gzip,0,85233d914f7c16229500049c8f3daad3ea1a06d4a06ba0e0dd10186f2d18b662,0eae0eae0eae0eae
gwy/sanguo.mrp,f_bg6_1.bmp,media_resource,223807,1538,9600,gzip,0,5ccbf0a30abd6cb01dd2de0c5d424fe448b3b4bb7960344e2245268f1c9d68f2,4852485248524852
gwy/sanguo.mrp,f_bg5_4.bmp,media_resource,225365,2334,4800,gzip,0,3c492bf0cb840a4be96fae3187bb1df32011202f8172dc8da7281bd132110ec0,02b602b602b602b6
gwy/sanguo.mrp,f_bg5_5.bmp,media_resource,227719,3838,11200,gzip,0,dac45d06f27da7c65161773b9c8cabb08c22a9e7a9c958b5dd3751bb8800c597,0eae0eae0eae0eae
gwy/sanguo.mrp,map_tit.bmp,media_resource,231577,1015,7500,gzip,0,0bf89bbcddb47b65cea8d037767a758e70a3506a8789a1c43c08a12650cd3e74,4e534f5b8f639063
gwy/sanguo.mrp,f_bg5_3.bmp,media_resource,232612,2641,4800,gzip,0,e22bff3fad9b20b40b32a6a8a8a065c22a59a175ec4dda56b77fa4c271260596,c143004400448022
gwy/sanguo.mrp,f_bg4_6.bmp,media_resource,235273,3308,11200,gzip,0,59f5a1c790eba15372dd25fd6fda85906bd6a0216713fab5d29d96555dcd45a1,caaccaaccaaccaac
gwy/sanguo.mrp,f_bg5_1.bmp,media_resource,238601,2887,9600,gzip,0,eaca6b2126d450f4764e8fb87528b13a5f9d23caa77ecb0aaa179d53087cda3d,c254c254c2540144
gwy/sanguo.mrp,ftg_ibg.bmp,media_resource,241508,2646,5880,gzip,0,484b241221714b6be9c736f2266acdc2f49b988a4a68989af6ee1f4b8f0f4927,1ff81ff81ff81ff8
gwy/sanguo.mrp,f_bg6_2.bmp,media_resource,244174,3096,9600,gzip,0,5f58b936c802aeb48bb7f9bb8f39b6c4c28675add03bb4e1001e2cac4c708337,cee5cee5cee54dd5
gwy/sanguo.mrp,fig_tit.bmp,media_resource,247290,4094,9600,gzip,0,b6f7923cafc4a202d86cac3e181839ae1e7e43484264e973fa6ada92e4426d35,0008000000000000
gwy/sanguo.mrp,chat_ts.bmp,media_resource,251404,581,2430,gzip,0,670571688ae658aab91d2bdc35ae3abc2f7d39690a5a6ba7bb29c86eb07741ff,1ff81ff81ff8c911
gwy/sanguo.mrp,chat_bg1.bmp,media_resource,252006,4792,41600,gzip,0,f28eee3c86fc889f280b7916dd298bef669f81cec346d203ebf0d490a4766242,4200001083000000
gwy/sanguo.mrp,chat_t.bmp,media_resource,256817,2578,13600,gzip,0,68d19842cdc0ac5ef6ba4b8596746f87157f7b29655c5233496b042ef2d7a0a3,0008000800080008
gwy/sanguo.mrp,sc_gn_i.bmp,media_resource,259415,333,1320,gzip,0,7d8c711d8a2062478f938d6c0989ac5aff7f9d12fb0d9d962f25b9710a974b4c,1ff81ff81ff81ff8
gwy/sanguo.mrp,gnk_1.bmp,media_resource,259766,3165,6080,gzip,0,c33a0c44e42475866799998c842bccc617396e31712e5465be257b490e3002e1,4c7b4c7b4c7b4c7b
gwy/sanguo.mrp,gnk_n.bmp,media_resource,262949,8832,18240,gzip,0,697e4029b4bbcf6300c53ac97862255572ba4d1f840869a3c3611316ca2901f9,4c7b4c7b4c7b4c7b
gwy/sanguo.mrp,f_bg2_1.bmp,media_resource,271801,1870,9600,gzip,0,9be2a117742a2478714c7a733c5f20f16657be7fa5beec627054f199e719ca56,dcaedca6dca68e7b
gwy/sanguo.mrp,f_bg2_2.bmp,media_resource,273691,2865,9600,gzip,0,2362a7734d04fca915e87b45795d480a14914581e2f63bbf5bde99ba4b937bdd,9c969c969c969c96
gwy/sanguo.mrp,f_bg2_3.bmp,media_resource,276576,2045,4800,gzip,0,37824096d292f25b790dd342c6bf80dd3ea4a0b9d5abd4ac6ce30aa720646e40,c45282428242c452
gwy/sanguo.mrp,f_bg2_4.bmp,media_resource,278641,2895,4800,gzip,0,c3106532d9efd91a585ca51eca8455a3d73bd52a4b685c3f4ac4224acf051420,8663c44ac44a054b
gwy/sanguo.mrp,f_bg2_5.bmp,media_resource,281556,2209,11200,gzip,0,53c44ba8cd5ef870b15b31d1eada687522d6b93864132ffd57449ec73ac37361,d0d5d0d5d0d5d0d5
gwy/sanguo.mrp,f_bg2_6.bmp,media_resource,283785,2024,11200,gzip,0,d902c42c9bbe3c75537a21ce93c2f75ab3242fd3268b47b52a304c5c015f770c,d0d5d0d5d0d5d0d5
gwy/sanguo.mrp,site_m17.bmp,media_resource,285830,389,920,gzip,0,4fe5c5cf8f1654f2c8dcce7fc75dac4226f32f8df9589170519eff383a34edc7,1ff81ff81ff81ff8
gwy/sanguo.mrp,site_m16.bmp,media_resource,286240,521,920,gzip,0,3ad37f21aa96f7f268973f1f7f2044d2f0ca37b1af3923f7bc15b4a07f812c3f,1ff81ff81ff81ff8
gwy/sanguo.mrp,site_m15.bmp,media_resource,286782,551,920,gzip,0,9a2f073fd6ce0309fc5ebef982f82aa6dabdfd11316047e59ce6320bfe8c19f9,1ff81ff81ff81ff8
gwy/sanguo.mrp,site_m14.bmp,media_resource,287354,247,920,gzip,0,aa06513fa450c0c78086507155342f130702d0c461627d7c52c3ba399e3e3c43,1ff81ff81ff81ff8
gwy/sanguo.mrp,site_m13.bmp,media_resource,287622,637,920,gzip,0,639920370a48139fe08a4d59a25c91b5b82554d4ae5b1c86cfea04639c314477,1ff81ff81ff81ff8
gwy/sanguo.mrp,site_m12.bmp,media_resource,288280,377,920,gzip,0,79f1b47544bac8adda287360971ec15abef5cc373a16a080b52eb6ab2e660717,1ff81ff81ff81ff8
gwy/sanguo.mrp,ma_14.bmp,media_resource,288675,7578,12800,gzip,0,2fe2f56a7fe094d95e25cd0c798dc72f56dc00e0b79f66e3804df05a946dd4db,cc6bcc6bcc6bcc6b
gwy/sanguo.mrp,ma_13.bmp,media_resource,296271,6516,12800,gzip,0,0deb267c864735dd26806c6e3fe583f02db45f6c782b87ec2f5717f9fe85e4b0,d09493b54f8ccd73
gwy/sanguo.mrp,ma_20.bmp,media_resource,302805,6904,12800,gzip,0,41b63e07247c9e65e51803095fb9df2afb595e49ccae149e7a792c80d4ce3949,c8628852c85a085b
gwy/sanguo.mrp,ma_19.bmp,media_resource,309727,7695,12800,gzip,0,5f28b735ca8ea7e3a285deefad147853e4863474c72b639e1151c073b95c77ce,d3f597fe97fe0873
gwy/sanguo.mrp,t_img4.bmp,media_resource,317441,1347,7320,gzip,0,5ab7211d79d4543f0c5fbe379a8dc83754fcc526c8f9b77780ec4db301fd1a7c,5ee75ee75ee75ee7
gwy/sanguo.mrp,t_img3.bmp,media_resource,318807,2376,7320,gzip,0,7e457ab23c7b1ef875e3eb088cdb28ccd9c68a4dc548dded6105191dd2ce1837,8503400240028302
gwy/sanguo.mrp,ma_6.bmp,media_resource,321200,7356,12800,gzip,0,a8b45c8273b749dcd1ca32d70eb73a7125bc19d7336283dda207d0250d40515a,41690040002885bc
gwy/sanguo.mrp,ma_5.bmp,media_resource,328573,5271,12800,gzip,0,c0d662a9b525cb44a8b449d103ed7ea3891aa91f6a0e422194c0c0f5c7892f80,989d989d999ddaa5
gwy/sanguo.mrp,ma_8.bmp,media_resource,333861,6247,12800,gzip,0,2fd2be38bae294bd0daaad9e8eb9b7f4c0cf61d51e0c2a4c74941676fb59d130,dfff50e600180020
gwy/sanguo.mrp,ma_7.bmp,media_resource,340125,7812,12800,gzip,0,03b76bab872a36a36aeadfe8bd9aedbdcc929a050413c4a58d9d6df2976dcbf1,dfffdfffdfffdfff
gwy/sanguo.mrp,fg2.bmp,media_resource,347953,688,5824,gzip,0,0b08c2c629df75fec951422f1efc59f996d47039db7c6b9c6ac413e475880a53,1ff81ff81ff81ff8
gwy/sanguo.mrp,smoke.bmp,media_resource,348659,203,1440,gzip,0,bcfc50672e55c061248757a8e116c844c9107eac1ae0d392500eecae077e8822,1ff81ff81ff81ff8
gwy/sanguo.mrp,ma_4.bmp,media_resource,348879,2907,12800,gzip,0,2a4db0838a64eb82eead3387e9e59ad0ae1dc4461c7c92413fd31ad2273510af,5b7d1b7d5b7d5b7d
gwy/sanguo.mrp,ma_3.bmp,media_resource,351803,2650,12800,gzip,0,61f8c4a9cc808183b1dfe38d28e0855721ca219c044b59fc611d0e4340cb7a5c,1a855a851a851a85
gwy/sanguo.mrp,dead_2.bmp,media_resource,354472,307,728,gzip,0,36f31eb3f2cb3c4670699c3b88455c45056224ee13abf184e48b4b4a32107487,1ff81ff81ff81ff8
gwy/sanguo.mrp,chat.bmp,media_resource,354796,102,768,gzip,0,38421dc0679816c4660863c7d0bf2dc02591ef79529389575c8f7c4384f9f2a0,1ff81ff81ff81ff8
gwy/sanguo.mrp,num2.bmp,media_resource,354915,395,2178,gzip,0,15f831364235edd3a0428299135915b58de4cfbdb4ae3b4ca57911b503e5ec4d,1ff81ff800000000
gwy/sanguo.mrp,ma_10.bmp,media_resource,355328,6371,12800,gzip,0,fe65f4d2f0f78a426f3d15b11e898b478dcf06cf71adca8ec2d1c15a81e1bb9f,56a556a556a556a5
gwy/sanguo.mrp,ma_9.bmp,media_resource,361716,6132,12800,gzip,0,cfdd8e7419c7ccf04450f9495ff3a933311a76dbfc5bd921d55d3396efdfaa63,918cce738d6b8d6b
gwy/sanguo.mrp,zgzj.bmp,media_resource,367865,4479,10080,gzip,0,9fb7dfe42f7f5a38bd9896c1d09157ca6ca295ef9ea1ba567adf25eae5ba9907,94ff94ff94ff94ff
gwy/sanguo.mrp,fg.bmp,media_resource,372359,1160,12512,gzip,0,3451409dd18df7ac0bc8221d2a77f69c28c37047ad9ec594daaf7354ab958346,5f4a1ff81ff81ff8
gwy/sanguo.mrp,sa_tit_m.bmp,media_resource,373540,2538,5040,gzip,0,9926359b264fe33fe57b55cf09edb84774e47ab4b111929e55f9e38ae9721ec0,54ff94ff54ff54ff
gwy/sanguo.mrp,r3_h50.bmp,media_resource,376097,354,882,gzip,0,81fccf364d9557ad7924aa74641cd1164d05d64ecd0862aebc36a655ea5dbb01,1ff81ff81ff81ff8
gwy/sanguo.mrp,r1n_h50.bmp,media_resource,376471,468,882,gzip,0,64b6e5495946e23505f2a79fdf94582a94ab66dc2d866521bcc79c18aa6ca25b,1ff81ff81ff81ff8
gwy/sanguo.mrp,r1_h50.bmp,media_resource,376958,559,882,gzip,0,319a959709e9f7307f92ea2377c241cf411e153328c663a975539a8cbae6b3d1,1ff81ff81ff81ff8
gwy/sanguo.mrp,r2_h50.bmp,media_resource,377536,422,882,gzip,0,e4c106c2a325c51766e718fa0f83528c77013455a3a862de7db88c15c851fc96,1ff81ff81ff81ff8
gwy/sanguo.mrp,help.bmp,media_resource,377975,2536,5000,gzip,0,83785216a1c1ec5233defb5036656816748f7aa9d081f15e26b63392d6b545b9,1ff81ff81ff81ff8
gwy/sanguo.mrp,sc_fjbg.bmp,media_resource,380531,2418,8526,gzip,0,1b2520ed1f159320ab7399abde7e1ca35e59afcc087bc89bac959b2b700bee60,1ff81ff81ff81ff8
gwy/sanguo.mrp,r2n_h50.bmp,media_resource,382969,359,882,gzip,0,3139514bb738467d6f87a9fff40eab309bd849ed0397354a42ec61f19c27de9b,1ff81ff81ff81ff8
gwy/sanguo.mrp,r3n_h50.bmp,media_resource,383348,532,882,gzip,0,0a5e164e2ee66cf00aae2e23608ddc12d14af0c8c68550e4d38e3f1c0e431775,1ff81ff81ff81ff8
gwy/sanguo.mrp,t_img16.bmp,media_resource,383900,2253,7320,gzip,0,7665be3b662cdfa21e57aa9f8e3e601992b30d279ac9301d39bcd9cfd627c4b7,95bdd6c5d6c5d2ac
gwy/sanguo.mrp,t_img15.bmp,media_resource,386173,1926,7320,gzip,0,47101250ab9c1c271f6d31d9b2310edd7a6c69feeb48b97b8a50102b8b8d179f,434a434a434a434a
gwy/sanguo.mrp,ss_m_1.bmp,media_resource,388118,470,920,gzip,0,3a7e7d12c03f21e5dc0b1e101356d4ee6ac2faa0da46c5face430715f2915a3b,1ff81ff81ff81ff8
gwy/sanguo.mrp,t_img17.bmp,media_resource,388608,1712,7320,gzip,0,434c37fb6a1a3a7896f8051df87507de51cfc2e90843a9eeaed444a6d1a3404f,dabe1bc71bc71bc7
gwy/sanguo.mrp,ss_m_3.bmp,media_resource,390339,575,920,gzip,0,4a86becaea9129f0461de0ee4dab24f1986138da955e4d3f9fc7b984cbf4ec9a,1ff81ff81ff81ff8
gwy/sanguo.mrp,ss_m_2.bmp,media_resource,390933,483,920,gzip,0,d9e70ddf060807e379e39b1620c17cb4e418af6c5927a933338e95bd3a2858af,1ff81ff81ff81ff8
gwy/sanguo.mrp,ss_m_5.bmp,media_resource,391435,291,920,gzip,0,74dc9b7cfba6817f770f8edda6afa346e68fe31f37edff12ae026d809de0ced8,1ff81ff81ff81ff8
gwy/sanguo.mrp,ss_m_4.bmp,media_resource,391745,440,920,gzip,0,fc06e1276a4952ae82bb015a966e5439bc8a3bc81da6171fd1c5c7aec91e8481,1ff81ff81ff81ff8
gwy/sanguo.mrp,ss_m_7.bmp,media_resource,392204,604,920,gzip,0,a1851f4bd9ebd294ce80990f5861a5ecda87ee1f39bd697dfc1cbee197e5bdb4,1ff81ff81ff81ff8
gwy/sanguo.mrp,ss_m_6.bmp,media_resource,392827,625,920,gzip,0,ba097d9495bd0ebde1c326b216cdd24e4caadda95ef6476f0e997f631954a366,0bd30bd380511ff8
gwy/sanguo.mrp,sc_bg_2.bmp,media_resource,393472,9632,39360,gzip,0,c8aba519a6aadb74744255470ad650d3c2ebcce52c2036f21b6c8f42a06d8a13,8729872987298729
gwy/sanguo.mrp,fig_rep4.bmp,media_resource,403125,374,1680,gzip,0,b8aea3dc7445c39a7f326be625bbe1b69348c5520a4739e808fe7a2d1eb359f9,1ff81ff81ff8c210
gwy/sanguo.mrp,sc_bg_4.bmp,media_resource,403519,8681,27840,gzip,0,e8884a6722308405edc5599a11955787ca026a25cb972964b9d2544f5f5a3f44,45414d9458ff0321
gwy/sanguo.mrp,sc_bg_5.bmp,media_resource,412220,6742,11520,gzip,0,e67217220a834bc6c01dca423e2cd5467c66478e3acb8a1bf6da18ac7eb3b437,858940188b93c240
gwy/sanguo.mrp,sc_bg_6.bmp,media_resource,418982,4249,19116,gzip,0,8bc9bde8de27e0fb67e600a3c80e352a822af3f3cf053363b5380e9f77451356,1ff81ff81ff81ff8
gwy/sanguo.mrp,map_wh.bmp,media_resource,423250,12459,34500,gzip,0,0ad556046de6ed20a3286c2ebacf156ba606446f3e3ae7516e38a7326e088752,ccffccffccffccff
gwy/sanguo.mrp,fig_acb.bmp,media_resource,435729,1361,9000,gzip,0,10402d579d97b3242b50a3d7a4690e6ccb694072cc7c81949a28ff94954df4f7,07acc7abc7abc7ab
gwy/sanguo.mrp,n1_b.bmp,media_resource,437107,453,1800,gzip,0,41fd8eec9be7d63b9b350ab2f14bd1024b0d921fc565c74b6814c25e5d034808,1ff81ff81ff81ff8
gwy/sanguo.mrp,img_gln.bmp,media_resource,437580,1410,5000,gzip,0,402dbf54e4d064785cd68897b72b1e78ce0f3897aa94d23920f7e7c6492b0ba5,9ad69ad69ad69ad6
gwy/sanguo.mrp,n1_f.bmp,media_resource,439007,216,740,gzip,0,37f2c23d322573b07330ff86c5e72534cbacf012ed3c2690e761852e9307e936,1ff81ff81ff81ff8
gwy/sanguo.mrp,f_bg20_3.bmp,media_resource,439244,1703,4800,gzip,0,0dae4b8ee60ec558284bf3d2eba8a78f84d28e3a9c413c8afd14fffa9796eb47,c349c349c3494552
gwy/sanguo.mrp,f_bg20_2.bmp,media_resource,440968,1876,9600,gzip,0,8a0e8bd7690614b440031c8928b60b1025c71de2c31e4926f57402762e0e27b0,ccacccacccac4994
gwy/sanguo.mrp,f_bg20_1.bmp,media_resource,442865,1675,9600,gzip,0,af034340e0bc310d69ebfae448b3920f421830a7a0a1ce8462d09fd0db7f9ee3,49c5ca9cca9c49c5
gwy/sanguo.mrp,f_bg9_6.bmp,media_resource,444560,2609,11200,gzip,0,9c55d7c4314002420dbb88823d5d2ebdae8ea84e09bb464b968f8f4d85a68bb4,0e6c0e6c0e6c0e6c
gwy/sanguo.mrp,ma_16.bmp,media_resource,447187,7518,12800,gzip,0,a4954f81b225f45288a441e21dfe1bf3f3b4b66f10a331efa06d3d54148a8fc1,c23003310229c228
gwy/sanguo.mrp,ma_15.bmp,media_resource,454723,7828,12800,gzip,0,877bd8033be104a2702fefa44e62eaac8a15454faa08ea93cdddec45a460c1a7,cbdb09d347dac5d9
gwy/sanguo.mrp,ma_18.bmp,media_resource,462569,5507,12800,gzip,0,217dbe6135b2ef75cc58d23bd4e60426fd26716a5c824c28f638a56ffdc45111,99fe99fe58fe59fe
gwy/sanguo.mrp,ma_17.bmp,media_resource,468094,7765,12800,gzip,0,2ac1a4e7d19e90ffc49bade552fe4bf76e4dd97c774f58aa5649323cd2544c69,d8ded4cdd8f69cff
gwy/sanguo.mrp,ma_12.bmp,media_resource,475877,7656,12800,gzip,0,9b04be5d145f746dc0d402157ce33f7475af322030e40bf1c6b9ecf6dce53bdb,4241c271828a8282
gwy/sanguo.mrp,ma_11.bmp,media_resource,483551,6303,12800,gzip,0,c86cf6d631ff774798504c36cb87a59fc60f31ef68e6550f4de2389f3f4e1d98,9eff9eff9dff9dff
gwy/sanguo.mrp,site_m10.bmp,media_resource,489875,342,920,gzip,0,8a0e6da2f336d30b5ccc6a053e814f53cc8fa88c2b5371fc9dc2e4924c3e0c69,1ff81ff81ff81ff8
gwy/sanguo.mrp,sc_gx_2.bmp,media_resource,490237,120,578,gzip,0,a2d1b5bde8f75bcadd0a8b833f62fcc1668e5dea0f4e889f684d777d950a0455,1ff81ff81ff81ff8
gwy/sanguo.mrp,sc_gx_1.bmp,media_resource,490377,120,578,gzip,0,8cf23a7a7c14270a0c58835268b0111bdfaf77555c637a8dcf4b32660fc75be0,1ff81ff81ff81ff8
gwy/sanguo.mrp,t_img2.bmp,media_resource,490516,2160,7320,gzip,0,f6fcab568d1149a334b742ad5b6802c92fe1a5eb11b63226f7bb8244e3bfea11,91a4d1acd1ac12b5
gwy/sanguo.mrp,t_img1.bmp,media_resource,492695,2388,7320,gzip,0,1874393e4394c1c8180999a48bfa9ea6da6468826d0da90896598fdb3ab2cc1f,049b04cc04cc04cc
gwy/sanguo.mrp,tit_bg.bmp,media_resource,495102,3079,9600,gzip,0,fa5c685d21dd2098244239de42a534cdaacffc1532a850adbc714bc453b06622,116c526c116cd47c
gwy/sanguo.mrp,sc_gn_4.bmp,media_resource,498201,824,1900,gzip,0,2d9f96d7154a938f8e5296e9b5770c4fdf5399a8d3d382f002087516b62f8ed0,1ff81ff81ff81ff8
gwy/sanguo.mrp,sc_gn_3.bmp,media_resource,499045,789,1900,gzip,0,9e6e99928595a003c4423f21dbc0249d7c46da901f665d3dabb33b1d6b829b05,1ff81ff81ff81ff8
gwy/sanguo.mrp,sc_gn_2.bmp,media_resource,499854,802,1900,gzip,0,b6c8ff5fe4ac49803f0caad7fdcaed6ce90d7e70c33e77898ec66e75fdc64fd1,1ff81ff81ff81ff8
gwy/sanguo.mrp,sc_gn_1.bmp,media_resource,500676,713,1900,gzip,0,39c43aed95215d0f223d7ae6e43affc8c820d4ea55be2c1db5513982220811a9,1ff81ff81ff81ff8
gwy/sanguo.mrp,n1_h.bmp,media_resource,501406,442,882,gzip,0,7b65925d5dff86c05c647f7521ab557829a34ddb1a768367b9bec3bc33b1562d,1ff81ff81ff81ff8
gwy/sanguo.mrp,n3n_f.bmp,media_resource,501866,184,448,gzip,0,da709b2aa159f92684ce9a2d8bb9556e28b2d0c98043b2b270407a0d0fd9a488,1ff81ff81ff8460a
gwy/sanguo.mrp,n1n_b.bmp,media_resource,502068,415,1800,gzip,0,11d10b5b57ab4afd31c29dcc1fcba52a957de84c0d13bf5a820de537735acab0,1ff81ff81ff81ff8
gwy/sanguo.mrp,n3n_h.bmp,media_resource,502501,536,882,gzip,0,9d03e8b071061301a07fb822d3566e875cc9d951c7d6639224831c6b1be620d2,1ff81ff81ff81ff8
gwy/sanguo.mrp,n2n_h.bmp,media_resource,503055,338,882,gzip,0,8e3a46fbdd5b38ad3d2f31d182492a04e28504ce6684e9efe73d586f9e7272c4,1ff81ff81ff81ff8
gwy/sanguo.mrp,n1n_h.bmp,media_resource,503411,465,882,gzip,0,6528e16f80d869a82c83b5b77017e50a9a7b462382dcb2bef543bce9adf777e7,1ff81ff81ff81ff8
gwy/sanguo.mrp,n2n_f.bmp,media_resource,503894,146,504,gzip,0,04828ce59ba6637baacf8e011fdbafb48dfabdec96035c9b93eb627c73ca0510,1ff81ff852685268
gwy/sanguo.mrp,n1n_f.bmp,media_resource,504058,194,740,gzip,0,83e146c54ce634c8e453866cfd4f7061d08423c63a9adf6f5f98b28ee08bfc50,1ff81ff81ff81ff8
gwy/sanguo.mrp,n3n_b.bmp,media_resource,504270,385,2010,gzip,0,fba37613f7438bafc28bb2a891d9440c9c98762d9c511b964a3aace7099e1ce1,1ff81ff81ff81ff8
gwy/sanguo.mrp,n2n_b.bmp,media_resource,504673,346,1952,gzip,0,7be3e3323a717f86acae1b7331267359ea55f738f16ce9811894c301de49654e,1ff81ff81ff81ff8
gwy/sanguo.mrp,sr_i_3.bmp,media_resource,505038,6009,14308,gzip,0,6464cb0e8606025d64674d054452eac1c39621c45f8c1bb12246ef36ca519c81,0020001800200018
gwy/sanguo.mrp,sr_i_j.bmp,media_resource,511066,221,2592,gzip,0,e5d70a3da936634302754ca6a1bd3bc77c7cbfb88e59083bc406e0350b0324bd,1ff81ff81ff81ff8
gwy/sanguo.mrp,sr_i_wh.bmp,media_resource,511307,719,2520,gzip,0,afef00e6f11132a1ac655831993badfd5c3ffed1e559dd401f9b275b5a5a1410,dfffdfffdfffdfff
gwy/sanguo.mrp,chat_bg2.bmp,media_resource,512047,5258,41600,gzip,0,f59da8a83de7159e8aeba17c8219d86242c226ec1cb5eb2dce93de7c025801dd,4000400040004000
gwy/sanguo.mrp,chat_fy.bmp,media_resource,517325,2290,3888,gzip,0,7731a92379764226190683c7be448fe9683d3adeb1a00e8054b6ceae4274e72a,4100410041004100
gwy/sanguo.mrp,f_bg_c.bmp,media_resource,519634,664,1674,gzip,0,51f200d9f9aca1c57b0214536d3a7388acc3569ac646aec67e881d4691a79ede,1ff81ff81ff81ff8
gwy/sanguo.mrp,f_bg_c2.bmp,media_resource,520318,727,1160,gzip,0,5bd9856b8df0a815587ad58c2ac32e1e8065087118469e412e4987d06680713e,1ff81ff81ff81ff8
gwy/sanguo.mrp,f_bg_c3.bmp,media_resource,521065,500,1008,gzip,0,c7eeca59fa4eb33a70f94c1c9caccd21866a030df7bf5e46267297606a689b88,1ff81ff81ff81ff8
gwy/sanguo.mrp,f_bg_c4.bmp,media_resource,521585,445,1216,gzip,0,f81412aa0d4883a4ffb2f89170e2db5b12eb205f6750c0dee7ecec78983fa908,1ff81ff81ff81ff8
gwy/sanguo.mrp,f_bg8_1.bmp,media_resource,522050,1716,9600,gzip,0,442e2c62be41631a361d494729c4f6fa532c54bb83218af96a2793c485cc4c78,18aed7add7add7ad
gwy/sanguo.mrp,f_bg7_6.bmp,media_resource,523786,3230,11200,gzip,0,d8a705dc6c8f608e38a26c687accf6eaeccd936726a9f96b1bff2f0f99b99d2c,4fcd4fcd4fcd4fcd
gwy/sanguo.mrp,f_bg6_5.bmp,media_resource,527036,2879,11200,gzip,0,523a3a92f197c7b979c9c2c74361439408cf19906e443ebe4f376ca53f3a9c52,879bc7a3c7a3c7a3
gwy/sanguo.mrp,f_bg6_4.bmp,media_resource,529935,2450,4800,gzip,0,0c828fc8287228f6a3fdb4e041eccaca86dd7bd85905637bc630a714bc8ba5b8,48b406ac06ac47b4
gwy/sanguo.mrp,f_bg7_1.bmp,media_resource,532405,1470,9600,gzip,0,1a99b2464bbdb1c9938acb876b94b50dcc9cd203e69b5269aea2b461af70e52d,d5bdd5b5d5b5d5b5
gwy/sanguo.mrp,f_bg6_6.bmp,media_resource,533895,3325,11200,gzip,0,cc8390daa9319c4b61a575fbbd8828243bc318ce48d3974a26b997905980f543,c7a3c7a3c7a3c7a3
gwy/sanguo.mrp,f_bg7_3.bmp,media_resource,537240,1525,4800,gzip,0,9d98e84899ebfe83128f1a05941e63a5348e6870d30d0548315e364441af82c4,8b938b8b8b8bcb93
gwy/sanguo.mrp,f_bg7_2.bmp,media_resource,538785,1824,9600,gzip,0,c96609a6221fec845720802f2a46fcbac932fafaf05da69342bac09a347d0503,d28cd28cd28cd28c
gwy/sanguo.mrp,f_bg7_5.bmp,media_resource,540629,3113,11200,gzip,0,d9f9a819ceb556e86bd7516d978eaa1185ba3acf4988c0ce77c318d2e6db23ea,4fcd4fcd4fcd4fcd
gwy/sanguo.mrp,f_bg7_4.bmp,media_resource,543762,1962,4800,gzip,0,f28f9423f716bfbc51d0cecfe8ce63f0411589acb50642cc016a098ee7c6b899,cb52cb4acb4acb4a
gwy/sanguo.mrp,helpa.bmp,media_resource,545742,339,1936,gzip,0,1f795ab2821b35208015e1f3cf5cdc7cd3c2afb2f4b7b883a2186c19071ff096,00e800f000f000f0
gwy/sanguo.mrp,reg.ext,reg_ext,546097,599,628,gzip,0,902288ddd8e41714ca877a4b45235ea58f48c0ea36458775287b6f46c4c36936,4d525047434d4150
gwy/sanguo.mrp,sanguo.ext,ext,546715,91759,159836,gzip,0,9a2343672a4368d09fa6575955298c440c654a801d944afeb8aaab4955d0c011,4d525047434d4150
gwy/smscharge.mrp,start.mr,start_mr,336,1018,2490,gzip,0,ff67eea7e6eed10e3871bd465953e7137001e2495b1eb13309c56db8659bfc7c,1b4d525080010a00
gwy/smscharge.mrp,reg.ext,reg_ext,1370,657,708,gzip,0,23e4b28fab1ce25e9cb16fd511b09dce78d82c89315efa4b47f38b582199fba8,4d525047434d4150
gwy/smscharge.mrp,smscharge.ext,ext,2049,26472,39748,gzip,0,d8aae05e690222f94c4ba48045c1b58b27c6a009cc232a91da7b76d435af7c69,4d525047434d4150
gwy/spacetime.mrp,start.mr,start_mr,10810,1392,3435,gzip,0,e318e580d789041a524a656038fcf38c6be35f9abba48902c8d4580ea8563ed7,1b4d525080010a00
gwy/spacetime.mrp,mandeath.bmp,media_resource,12223,228,756,gzip,0,5b2465af4272fa55679be2924ced8cf54f77677a6001f51423f81a751f68bf36,1ff81ff81ff81ff8
gwy/spacetime.mrp,npcstate.bmp,media_resource,12472,659,5358,gzip,0,a5a9d57985b7ed6c488e659570ab5ee64953ef1e4e35d0ccc06b627f2c1dc5ac,1ff81ff8c088c088
gwy/spacetime.mrp,npcdf.bmp,media_resource,13149,222,972,gzip,0,864da7e04eccf9a07caa403553ae2fb832053af67e68f26b6fa2326bac5454d1,1ff81ff81ff81ff8
gwy/spacetime.mrp,door.bmp,media_resource,13388,306,1840,gzip,0,ac66015c6e879378aba1836cfc5f2a5617a27bca3e211fcd8537177e0e7ec82c,1ff81ff81ff81ff8
gwy/spacetime.mrp,death2.bmp,media_resource,13713,360,1760,gzip,0,957a72143b0cdf018720469dd8feed51726dafcdea8471e28f7bbf94833b1078,1ff81ff8c9f8c9f8
gwy/spacetime.mrp,ef2.bmp,media_resource,14089,433,2862,gzip,0,36b98a085dfcaa20d1ac4ffd2cbc48eb76d32801f26cf5b081e3de55eb2eb7fe,1ff81ff81ff81ff8
gwy/spacetime.mrp,ef1.bmp,media_resource,14538,615,4440,gzip,0,222ac7a09efa57a8970b51c48d6e0cf6cee483bf07de4799211c1477dc74577d,1ff81ff81ff81ff8
gwy/spacetime.mrp,sk2_7.bmp,media_resource,15171,182,512,gzip,0,50241843a47133bc3cc257bbadae5a856447cb774c0ad5cc0a3fede950afc15e,fd14fd14fd14fd14
gwy/spacetime.mrp,damage1.bmp,media_resource,15373,392,4320,gzip,0,5e9337e6efab79d2d874d183482a407d3cbf4a9652e83e247c6b50eac53bb613,1da81da81da81da8
gwy/spacetime.mrp,star.bmp,media_resource,15782,79,324,gzip,0,23dc404bf980fcd0751c0afe1b569c950b643a65ee0fbe087c16758165fa0634,1ff81ff81ff81ff8
gwy/spacetime.mrp,sk2_6.bmp,media_resource,15879,218,512,gzip,0,64442eed3ef1d7f08c1c32028da67e01f8e5ca0a32e60997fcc05fe2bf16683e,fd14fd14fd14fd14
gwy/spacetime.mrp,e8.bmp,media_resource,16112,622,1500,gzip,0,2a80162b6c47176304706b59456278e42d4b883986fe1b1321a7e80f95c7fa23,1ff8416142612161
gwy/spacetime.mrp,e9.bmp,media_resource,16749,316,1720,gzip,0,0097e1a45696a5e99cdc48634338fbf7f5f994c6159a78f6ca7ca2a90fc997c5,1ff81ff81ff81ff8
gwy/spacetime.mrp,i176.bmp,media_resource,17082,313,512,gzip,0,e10aabbe30bb610ac9b292122d45834872f39352d2d1cf2f5e7f0a1e1164a38f,fd14fd14fd14fd14
gwy/spacetime.mrp,e4.bmp,media_resource,17410,377,1300,gzip,0,137bd51bb998d7c9e65a4dbdd8f9383f99cdae19e194c6653d63b15f59c86057,1ff81ff81ff81ff8
gwy/spacetime.mrp,e5.bmp,media_resource,17802,316,992,gzip,0,b8785165f19afb9f6ce8bfd5244593545c8a9ec4dd553c581220fb2104a025c7,1ff81ff800480060
gwy/spacetime.mrp,e6.bmp,media_resource,18133,445,2494,gzip,0,61896019b348de5876cbbb1b4a08ed460e0666e77db080a40e816be52d0625f7,1ff8208020802080
gwy/spacetime.mrp,e7.bmp,media_resource,18593,623,2242,gzip,0,825163528f1f1d348a383d6a70a37c44eea476ed3c94d6f8b434e656e7967bc6,1ff81ff81ff81ff8
gwy/spacetime.mrp,e3.bmp,media_resource,19231,317,650,gzip,0,5f9e109107441d3c79b655aaff953e09d3810fdd74269e6860c8f22c4c5b0d9a,1ff81ff81ff81ff8
gwy/spacetime.mrp,sk1_1.bmp,media_resource,19566,277,512,gzip,0,c196d269e74a4643e832246f7d9ebc47bcfadf9938f4a28544739188b29bf05a,fd14fd14fd14fd14
gwy/spacetime.mrp,sk1_0.bmp,media_resource,19861,257,512,gzip,0,e43ebb4dc502cb4b2192c2fbad01ebaa5b15c256db62d2629ec94bbb05fd7f12,fd14fd14fd14fd14
gwy/spacetime.mrp,sk1_3.bmp,media_resource,20136,147,512,gzip,0,0de7c6b3598b61b0f1f0e848065105ad29da2f7d03ee8001f876c7d3f96ae96f,fd14fd14fd14fd14
gwy/spacetime.mrp,sk1_2.bmp,media_resource,20301,244,512,gzip,0,5c2f405ce2a19bfbd12693d4a8cb41cc5e624ade143a001309a134fa1bd05e14,fd14fd14fd14fd14
gwy/spacetime.mrp,sk1_5.bmp,media_resource,20563,228,512,gzip,0,6a4e1ca2f357e10802561c66605b7d3e07c49b1b59b1e9d48caeeb2db67c6da0,fd14fd14fd14fd14
gwy/spacetime.mrp,sk1_4.bmp,media_resource,20809,257,512,gzip,0,8004888bef14ce40eb110e13d5e7d9e6ac4b818e076c75be428c0319e20d983a,fd14fd14fd14fd14
gwy/spacetime.mrp,sk1_7.bmp,media_resource,21084,227,512,gzip,0,fe3b1a56284a7526769df7ed2d1f383c2285c8ba08c1103ac488c8211c6b68b3,fd14fd14fd14fd14
gwy/spacetime.mrp,sk1_6.bmp,media_resource,21329,219,512,gzip,0,1c47bcafc37e3802d28ba0286b813d86861cb2ebc8a5b482fe0e4dd353728b3a,fd14fd14fd14fd14
gwy/spacetime.mrp,sk1_9.bmp,media_resource,21566,287,512,gzip,0,485b99616a0c886db15ba9e2f9375ad46647ce0f38ac86138716c7c773a2573c,fd14fd14fd14fd14
gwy/spacetime.mrp,sk1_8.bmp,media_resource,21871,204,512,gzip,0,1410370ac7d6d6d6e47f131f461d8cb2632066647b5e3e359a5e9462e667c759,fd14fd14fd14fd14
gwy/spacetime.mrp,e15.d,other,22089,216,604,gzip,0,182a3097d4f52803d84bc7e1ae777a1ce5ea7048f9102321ea492e5568be5cad,00002c020f020003
gwy/spacetime.mrp,e14.d,other,22319,322,1030,gzip,0,b0e8a19e8a8519e79505368e59c87de7280a7109f2e36fb1b1895714825e4114,0000bf070e000004
gwy/spacetime.mrp,e13.d,other,22655,173,448,gzip,0,07f5d699fae13589be41f38f1d7a9d1b706143cdbfa514e75cb1dff2da371496,000020020d020002
gwy/spacetime.mrp,e12.d,other,22842,126,332,gzip,0,11a2169592b168edc4aceffb5bc9320d330307991a227793231e423470316bb1,000014020c020001
gwy/spacetime.mrp,e11.d,other,22982,129,332,gzip,0,d6f3203581ff0ffac6f96409ff48ad5a98296e0261e5a0fb9e4be1db4d807f37,000014020b020001
gwy/spacetime.mrp,e10.d,other,23125,133,332,gzip,0,d194dd9527b8b306299d6890c82c310407d589a174c2b0f7872b82e14c02129a,000014020a020001
gwy/spacetime.mrp,sk10.d,other,23273,179,299,gzip,0,0d2ccf9adc21c07514d7d8a2d54d679fd0783bb62c567bfed85b2b06c9bb9ea8,070a00000203ed09
gwy/spacetime.mrp,sk11.d,other,23467,234,332,gzip,0,9f04a2f3be0254291722a5ee16e397e53e5ab29db6200be4f131d26cca664646,060b000001f5e800
gwy/spacetime.mrp,sk7.d,other,23715,87,128,gzip,0,f6a49d905796a6760a421324929b6299910db96f52d207077ad716fc9064d9aa,060700000107da2d
gwy/spacetime.mrp,sk9.d,other,23816,193,272,gzip,0,02083f14cc863c72407e16f3016f587352813f04bb699e746e11ddeee5e9b641,0a09000001e5d800
gwy/spacetime.mrp,sk3.d,other,24023,123,158,gzip,0,8e09d8677b3288b13a6f52856cdc82f76309a1de6b2a6bb32f540b9a5ac13d15,040301000605dd00
gwy/spacetime.mrp,sk4.d,other,24160,105,149,gzip,0,ec14efb8c144e7e1a071ea98047fae703c42479c807ae8b66f7de6e6019c4aa8,070400000312d800
gwy/spacetime.mrp,sk1.d,other,24279,33,41,gzip,0,04b90d4573673a040a041e4734c922d61d5c507b329387d874684ee65091010b,0501000000000001
gwy/spacetime.mrp,sk2.d,other,24326,93,77,gzip,0,3bd0aa2b695668ea8e7c6dbe0ebbdcc95dc9e205b5f35cc3bb8d17207a0d3775,0302000002f3dd00
gwy/spacetime.mrp,logo_9.bmp,media_resource,24438,15354,30720,gzip,0,bb35b18ed5d1e3d9c1089600d1cf501f30c0509fd0847c46b9fdd4c0ff132e78,d9c6f9cefacefad6
gwy/spacetime.mrp,logo_10.bmp,media_resource,39812,17491,30720,gzip,0,70446c26c644ef49b11d5434a0fc79b404f9be21f3ba0e213bd6d65ab5a96e7e,b48ab48ab48ab48a
gwy/spacetime.mrp,i170.bmp,media_resource,57320,241,512,gzip,0,76ac0ebc3a28020436bd88e42b09163148ae84edf32f76806838a5dfc964e948,fd14fd14fd14fd14
gwy/spacetime.mrp,sk12.d,other,57576,135,149,gzip,0,8ab670afe045ed9caf381fa2eaf5366d269bca9b7d6eb91c061e80be3e02e649,050c000001f7a901
gwy/spacetime.mrp,sk16.d,other,57726,35,29,gzip,0,d0358167453bbe6d311ab948bfb26ef4eb852b385d1883bd7bd94a0d1a77f5f8,0310000001f3e400
gwy/spacetime.mrp,i133.bmp,media_resource,57778,243,512,gzip,0,0a0afc3c259aba5dd04542b711b84ed9cfb179fb15721012dd97a571301dffc8,fd14fd14fd14fd14
gwy/spacetime.mrp,i132.bmp,media_resource,58038,288,512,gzip,0,2cccdfbd22555352846bfa9eae1d07a1933003f34fb5db4d8d178a6e07599700,fd14fd14fd14fd14
gwy/spacetime.mrp,i130.bmp,media_resource,58343,121,512,gzip,0,594509449788cbce8568620e361b469a21df548261466a833b00bd2f2e95adbd,fd14fd14fd14fd14
gwy/spacetime.mrp,i139.bmp,media_resource,58481,267,512,gzip,0,2d61b3148b70e3ca3348521b4209f2b140a307a0a8910f5ce3f36bb1ef3f9f3e,fd14fd14fd14fd14
gwy/spacetime.mrp,i31.bmp,media_resource,58764,166,512,gzip,0,66757d71a84ee8d2c5f098e92b15d943e5cbe36bd22ce51218f3be07f27191e4,fd14fd14fd14fd14
gwy/spacetime.mrp,i37.bmp,media_resource,58946,281,512,gzip,0,e10668c77903fc0c334c489f8f4f1b2fbc5d1f5868cd9264162ebe4d74f9a9c3,fd14fd14fd14fd14
gwy/spacetime.mrp,i22.bmp,media_resource,59243,272,512,gzip,0,ed820abe6de231a8a3d8d594e29351d391c6a149f0c0ecd4e4d7f0542e8de364,fd14fd14fd14fd14
gwy/spacetime.mrp,sk12.bmp,media_resource,59532,356,2166,gzip,0,78a375b42d052a2ffeedc54d1d443bf9117a1242c19298a0da3195f82486f02a,1ff81ff81ff81ff8
gwy/spacetime.mrp,sk16.bmp,media_resource,59905,240,1144,gzip,0,94fc2babe63a3d5384edc0dabf7dd44b2ff5088f9d6e8b20a366249016134b3a,1ff81ff81ff81ff8
gwy/spacetime.mrp,sk1.bmp,media_resource,60161,288,1334,gzip,0,a55fea772a17b0bf3c8337960827fa00e333e981e9c203ba7b4c471fb9f57346,1ff81ff81ff81ff8
gwy/spacetime.mrp,sk2.bmp,media_resource,60465,263,1150,gzip,0,05c884e838128680cebb771bdfececbdbfb4ae61d729a33163dc95eb6f65358f,1ff81ff81ff81ff8
gwy/spacetime.mrp,sk3.bmp,media_resource,60744,196,1276,gzip,0,7bf07a03bf02aaa1ec84d19beeb167a81d87f90990955e9b827d6f91605a1afa,1ff81ff81ff81ff8
gwy/spacetime.mrp,sk4.bmp,media_resource,60956,371,2350,gzip,0,6588c01aba9ec228b913ab81db33f5cad04df5e02968b02ad98ecf70a4da6b19,1ff81ff81ff81ff8
gwy/spacetime.mrp,sk7.bmp,media_resource,61343,384,2640,gzip,0,8314be5bd9522af00020d3924ca43a7d441dc5b8c6ea9eb7900af7fb04330c0b,1ff81ff81ff81ff8
gwy/spacetime.mrp,sk9.bmp,media_resource,61743,452,1836,gzip,0,2a6ce4a616eff3a583c966e2758b446834af3ee0c44d5d8580e96620596b624b,1ff81ff81ff81ff8
gwy/spacetime.mrp,sk10.bmp,media_resource,62212,242,836,gzip,0,844e51be7ccc427e87c6b7266b11ef94d8022b36daf805517b3f940b980bdb06,486a486a1ff81ff8
gwy/spacetime.mrp,sk11.bmp,media_resource,62471,387,2016,gzip,0,ea4069a67dd362ac27fae06ae2704d3d0f1ce9227b789a7b3604ab9951be5688,1ff81ff81ff88203
gwy/spacetime.mrp,e26.bmp,media_resource,62874,896,2150,gzip,0,e40372e53f1e4ae2ec2a232e879c02fe8d1cd70dc4d756ea5ff0e8eb5ac491ca,1ff81ff847091ff8
gwy/spacetime.mrp,e27.bmp,media_resource,63786,2819,11990,gzip,0,5e061285f899c35ed13b31a0ac42404bfc651ab264024d7941d5210d7d5e6f31,1ff81ff81ff81ff8
gwy/spacetime.mrp,e24.bmp,media_resource,66621,592,3234,gzip,0,21265449e582227de2752030752bcedf307ded717af53861c1bb9814f43de3c8,1ff81ff81ff81ff8
gwy/spacetime.mrp,e25.bmp,media_resource,67229,689,1640,gzip,0,334127cc12db842512f7ad8ba99877e6a1c5b0d72209c5573595d8428837bff8,1ff81ff81ff81ff8
gwy/spacetime.mrp,e22.bmp,media_resource,67934,322,1440,gzip,0,b91e2a8307d8c610c9c5f6fea962cbb016824fd379c7b6c14beab7d2d36d4523,1ff81ff81ff81ff8
gwy/spacetime.mrp,e23.bmp,media_resource,68272,332,1640,gzip,0,c3ded898869fc69aed081aaede5d3372424c8d9e0a3ef685f91f0acda1159167,1ff81ff81ff81ff8
gwy/spacetime.mrp,e20.bmp,media_resource,68620,228,812,gzip,0,5bbc442950450e5150f2d90f10795d3dbd3ee654f49562452e3c46997c3167a6,1ff81ff81ff81ff8
gwy/spacetime.mrp,e21.bmp,media_resource,68864,741,1750,gzip,0,1bb22b30c1d6fb3b863b799b1b26963c4d9198991b868fa5bf3c2109d74e8dea,1ff8c060c0601ff8
gwy/spacetime.mrp,e28.bmp,media_resource,69621,1725,7722,gzip,0,a90b405129e5c9e40debf837495e79b648912d96df35bbecfde5cf08f3e213af,1ff81ff81ff81ff8
gwy/spacetime.mrp,e29.bmp,media_resource,71362,795,2016,gzip,0,f7541e3609f078d85e5cdba0a7b61a73535a00aa7e3201275f9e8c203d88866f,1ff81ff81ff81ff8
gwy/spacetime.mrp,i49.bmp,media_resource,72173,257,512,gzip,0,eb1184ec7d47d852622111f59fe9c9a1bef36a54c11a77789a707b39f8167a98,fd14fd14fd14fd14
gwy/spacetime.mrp,i48.bmp,media_resource,72446,242,512,gzip,0,e39ff9bcae2413c3ee0a884309667cee373f28dd2fca47e5b5fa957d523cde06,fd14fd14fd14fd14
gwy/spacetime.mrp,i47.bmp,media_resource,72704,275,512,gzip,0,24aad57f710bdf8f7751710af203ecd477492c0d9a6a4be73ab0e6e40b7465e6,fd14fd14fd14fd14
gwy/spacetime.mrp,i44.bmp,media_resource,72995,258,512,gzip,0,c211d86f17e6b3cdbd5d2d5f0085a6f12f3ea2a5670d34199b8d9c0b7bad1772,fd14fd14fd14fd14
gwy/spacetime.mrp,i41.bmp,media_resource,73269,219,512,gzip,0,9e693bedecb6d815504ca660e042713a7b6ec7b553510837e246c08b40f7d8c2,fd14fd14fd14fd14
gwy/spacetime.mrp,e35.d,other,73502,260,664,gzip,0,a788ff56a7d2b44ab8059775039e7bf1199b6c6ee8428b6b339bf2abfb214d69,0000380223020004
gwy/spacetime.mrp,e34.d,other,73776,173,448,gzip,0,6941df83efa39d458ed836548a3bf4097427b8ce252f24f44679e8fe754a1e82,0000200222020002
gwy/spacetime.mrp,e37.d,other,73963,165,448,gzip,0,bf699ae1a9e405d85424af37b5bc97d49f84630589739202da93123a4a7c59a4,0000200225020002
gwy/spacetime.mrp,e36.d,other,74142,170,448,gzip,0,8cb00425ee41b1dc81f11a0df12e45127da3ba131fe0489c338997047e2bd1d0,0000200224020002
gwy/spacetime.mrp,girl_ride_2.d,other,74334,76,110,gzip,0,0a1ce7d1eff6ed4f9b820e5a237d90b2534c49003b1ec2b6906115ce2771bfd9,0402000004f7dd0f
gwy/spacetime.mrp,girl_sit_1.d,other,74431,52,110,gzip,0,f401aea7b345fc6c8073f830c0fd3069b598181375a0ad15b3a7db617b3ccfb7,0402000004f9de00
gwy/spacetime.mrp,e33.d,other,74497,168,448,gzip,0,72ac28f4dfff050cb61b056b7d3963bc57f3e53757e0f11fe1f831a04881dafe,0000200221020002
gwy/spacetime.mrp,e32.d,other,74679,414,950,gzip,0,dfc9b0636c9a408503cb11b29c42903b814891f98c42493d01bb514a92891525,0000000000000000
gwy/spacetime.mrp,girl_fire_2.d,other,75115,59,68,gzip,0,a8c68e091e0f15157cc21b899367ff398b0c901d314793c1cb5a171fe3ce521d,0202000005f6db1b
gwy/spacetime.mrp,girl_movind_1.d,other,75198,82,83,gzip,0,651914cb6390630d4b57e98c2056225adacaf1739ec7a6863aad342bf447fea9,030200000407dc20
gwy/spacetime.mrp,girl_movind_2.d,other,75304,92,89,gzip,0,7a66ce595fb28dfecbad0a1741eaba6f363b3521dff14a5547260e178265a04a,0302000004f3dc1b
gwy/spacetime.mrp,girl_ride_1.d,other,75418,76,110,gzip,0,7dd7cba3563703156cddbeeb98cf790ec3c19da322bf5bf50fa676a997d42301,0402000004f9dd00
gwy/spacetime.mrp,e39.d,other,75508,322,916,gzip,0,692598f1e039f610591c1ebfe3e2228485e4dc5e83ac169cdf8d377cc62a532a,0000440227020005
gwy/spacetime.mrp,e38.d,other,75844,260,760,gzip,0,dc5cc389d88f72cb2bf91b342b3d47344eb6b8f925c398c7d2bc084d1d20f239,0000380226020004
gwy/spacetime.mrp,sk2_5.bmp,media_resource,76122,191,512,gzip,0,7ab322e4095010c6fddad7d76860eefeca7c07a187405fa04ec43281c4936a97,fd14fd14fd14fd14
gwy/spacetime.mrp,girl_fire_1.d,other,76335,59,68,gzip,0,d7a8ae9a5689fd87cf26414c1d6a1a813e6db5d838760378897a088c89c00a11,020200000504db20
gwy/spacetime.mrp,i119.bmp,media_resource,76411,201,512,gzip,0,6b5f2cfa687587662e1c04c2514f6fbd915cacd2eb97c1de525427fdde0e8318,fd14fd14fd14fd14
gwy/spacetime.mrp,i118.bmp,media_resource,76629,397,512,gzip,0,dddf41c61d624777a145c0f2779a430cdbb988b37857d71c74a2f55cdeaae8ef,fd14fd14fd14fd14
gwy/spacetime.mrp,pro.bmp,media_resource,77042,388,600,gzip,0,615ffdb8855613e20f75ea172ee2662f8de81fc149663fa5a2e258052e9a9a40,a0f0a0f0a0f0a0f0
gwy/spacetime.mrp,npc13.bmp,media_resource,77448,473,1440,gzip,0,12a91becf1e216c4e2b99ebf82d98ab484ca4edc5054f38f21690f722303d7fc,1ff81ff81ff81ff8
gwy/spacetime.mrp,no03.bmp,media_resource,77938,74,560,gzip,0,78c2bba01e2124ed4d1e8bbff1f7170582b74740b2d3063139dbb06075bae81a,60ff60ff60ff60ff
gwy/spacetime.mrp,mpoint2.bmp,media_resource,78032,70,280,gzip,0,eaee1b0d55175c41d69721c0beaac6cf54a2dcc41fa1b71c9833c8fe56413612,1ff81ff8a0f6a0f6
gwy/spacetime.mrp,npc16.bmp,media_resource,78120,305,702,gzip,0,15f60e0ccce2d4dd61362af458b21426a81725d8c5acf45c6a774cbccc93f6a1,1ff81ff81ff81ff8
gwy/spacetime.mrp,damagem.bmp,media_resource,78445,232,1586,gzip,0,6fdcf525c4678922160d379e7f9e1cd8ff0a7d9158e0955791476abd961a2d82,1ff81ff81b041ff8
gwy/spacetime.mrp,pkbanner.bmp,media_resource,78698,315,2124,gzip,0,420a5f5253f6a5385d657ba13850216c19e528538bca4b1b09da7c276086c086,1ff81ff81ff81ff8
gwy/spacetime.mrp,status1.bmp,media_resource,79033,97,1078,gzip,0,eb08b6739d89e96cc373afef64157b46ae1fa47390233cd56a22d55727c980c6,1ff8ffff1ff81ff8
gwy/spacetime.mrp,flashico.bmp,media_resource,79151,733,2268,gzip,0,6383711f20f2bcf08762b2a7a082148e4280dddc5c18469a925028e2d9302c31,1ff81ff81ff81ff8
gwy/spacetime.mrp,npc12.bmp,media_resource,79902,631,2400,gzip,0,60d2377980c358c268b0a47566da8f517e60ae36ba618829eac208e667f45e23,1ff81ff81ff81ff8
gwy/spacetime.mrp,e19.d,other,80547,128,332,gzip,0,e90c535db1b0a205717eb40d115a6a54f84f9177b9ebe6a658a927940aa45114,0000140213020001
gwy/spacetime.mrp,e18.d,other,80689,177,512,gzip,0,b46d7ca688f8fbace42d5148563bd347f731e42371788176f9c71bc343959752,0000200212020002
gwy/spacetime.mrp,npc10.bmp,media_resource,80884,913,4730,gzip,0,e0f8f22c5cb5ce5aed9aed651d27d598f41aae8653bd072d909cea19578b606e,1ff81ff81ff81ff8
gwy/spacetime.mrp,e40.d,other,81811,282,820,gzip,0,9ab67da35f3d1cfdde1cb76fa979fb7ced55f09a35e071ff97654a9953a976a1,0000440228020005
gwy/spacetime.mrp,e17.d,other,82107,161,598,gzip,0,f3d0511667fa4ce152f29f43f27eaa7c15d315d86f6c09e791d73344363e7fec,00006b0711000002
gwy/spacetime.mrp,e42.d,other,82282,255,760,gzip,0,3b731e38cc83eb215c4e19903b7675f2cb161f30675809ebaacdd0726cfba545,000038022a020004
gwy/spacetime.mrp,npc11.bmp,media_resource,82555,761,3008,gzip,0,401683c2b0a5d773c5ec23f2a85dbbd8fe3305d990c43ba2b50e9132a0c98647,1ff81ff81ff81ff8
gwy/spacetime.mrp,e44.d,other,83330,382,1246,gzip,0,1d555f37116194f42eab75ba77fe51355665536416e431057dc5e485e4a75e20,0000e9072c000005
gwy/spacetime.mrp,e45.d,other,83726,231,1030,gzip,0,aa82705c93d314a8d706d692ac757551a2e5c46e271db9fd3e8e10f839079570,0000bf072d000004
gwy/spacetime.mrp,e46.d,other,83971,242,958,gzip,0,f14b1557a85f837f9419cedfc8b7673d28f4bd93e207dbc8273a4e4a1e1ceca1,0000b9072e000003
gwy/spacetime.mrp,e16.d,other,84227,169,448,gzip,0,9ce6728c515518d20c6e0b9da1fa601559b33c49450466b68a853a3e892fc02d,0000200210020002
gwy/spacetime.mrp,e48.d,other,84410,383,790,gzip,0,5748f3d8deddef96d594f82031a42598a1d00b1299e74225d50f54fc97ca616e,00008f0730000002
gwy/spacetime.mrp,e49.d,other,84807,377,790,gzip,0,7296c2cb2086e3a0e589018e3a12e86763cdf5fc3e8b370721e249180dfe8701,00008f0730000002
gwy/spacetime.mrp,npc17.bmp,media_resource,85202,441,1512,gzip,0,b99a61d240ba0bb537510eb4f24106c2c8112721e4ea46c336b82d479d3df088,1ff81ff81ff81ff8
gwy/spacetime.mrp,e40.bmp,media_resource,85659,305,1350,gzip,0,f80f44d44e66b14a05adecfe4a7900e23d30e4f0e7b3785509f5df3492bee49d,1ff8e0a000600060
gwy/spacetime.mrp,e41.bmp,media_resource,85980,859,2346,gzip,0,df5702070f278124d5478060ecc5b1199a1dcfc7118f32f6212807da1d1c18b6,1ff81ff805100510
gwy/spacetime.mrp,e42.bmp,media_resource,86855,698,1892,gzip,0,8ec64f9bfbc3791f986320fa9e295e510e03bd16490c56505e2e7008f168507b,1ff81ff81ff81ff8
gwy/spacetime.mrp,e43.bmp,media_resource,87569,366,1404,gzip,0,63e4d2e1d0382fa85ad0ffaaf1d8a071bfe29d8d3399dbeac533adac8319e25d,1ff81ff81ff81ff8
gwy/spacetime.mrp,e44.bmp,media_resource,87951,369,832,gzip,0,55782580388dec0f92e625d5422aa87678c599e3911cb5f3655ed1548eef3cb4,1ff81ff81ff81ff8
gwy/spacetime.mrp,e45.bmp,media_resource,88336,312,1008,gzip,0,96c74d29797ed07a981865ca33c033a65562abd92a10113933aae5620c850ffc,1ff81ff81ff81ff8
gwy/spacetime.mrp,e46.bmp,media_resource,88664,566,1152,gzip,0,0f3e91d895582de50d182d5c1ba4be1d15c808caef9956644c9f16ff207904b7,1ff81ff81ff81ff8
gwy/spacetime.mrp,e47.bmp,media_resource,89246,469,1850,gzip,0,32cc5cc4d4554b183af04403fcb09cf097bece7da47415aafd04aceff88eaf0c,1ff81ff81ff81ff8
gwy/spacetime.mrp,e48.bmp,media_resource,89731,101,280,gzip,0,3b3628c224c5505b763a61c087e7f155a3449c715d002b04ffcff06a30f82880,1f471ff81f471ff8
gwy/spacetime.mrp,e49.bmp,media_resource,89848,517,2886,gzip,0,085f217067bbcfe4093c9fcced1dced65961bb0c60b569041255555e00d6f781,1ff81ff81ff81ff8
gwy/spacetime.mrp,npc15.bmp,media_resource,90383,437,1794,gzip,0,6f6c2024ca75fb4a2b6b208926430499bff7b2e98e92eae6d7658df33211b4e1,1ff81ff81ff81ff8
gwy/spacetime.mrp,i69.bmp,media_resource,90836,320,512,gzip,0,5f56389bab9214bd8bbf3ad7ddcb9d009216f78689b8b3432d861685c725b92e,fd14fd14fd14fd14
gwy/spacetime.mrp,i68.bmp,media_resource,91172,317,512,gzip,0,8d3bde58e877716004fb83ad3253f8f79f2ece05dc059a8fbbd1587f369cfe99,fd14fd14fd14fd14
gwy/spacetime.mrp,sk3_1.bmp,media_resource,91507,363,512,gzip,0,afe6193d04242cbcd98038a95d2d8338a38812ae4fca05afba934cae5d44f798,fd14fd14fd14fd14
gwy/spacetime.mrp,sk3_0.bmp,media_resource,91888,296,512,gzip,0,66522ac49c0dd0ea26ce01056ce3aa1d148373b27f2bfc7317ddf362be12990c,fd14fd14fd14fd14
gwy/spacetime.mrp,sk3_3.bmp,media_resource,92202,322,512,gzip,0,61444c7eb2aadf0f3bfe3cc5f7d5322f35c4ca7e6c299f4d4ea8c2c8383c2b10,fd14fd14fd14fd14
gwy/spacetime.mrp,sk3_2.bmp,media_resource,92542,288,512,gzip,0,d2bd77fa57e8c17648feb8c96b50bf2a7723b498a73f5c5bde56fb1ac01b8e7d,fd14fd14fd14fd14
gwy/spacetime.mrp,i62.bmp,media_resource,92846,418,512,gzip,0,cc573fb97d6fb32c8868993e7015cc8f7806cbc811c96dfd2947e8e27358a542,fd14fd14fd14fd14
gwy/spacetime.mrp,i64.bmp,media_resource,93280,262,512,gzip,0,82fe4ff327166aa2dcb40c5382eac6f7010ac5eb46facda6980e5a6e00e597ae,fd14fd14fd14fd14
gwy/spacetime.mrp,ghost1_movind.d,other,93566,39,38,gzip,0,c59d0c928b76eae5ba083e82f2642bff9bfc40b9218687016ae3344e632c88bf,0400000001f7d400
gwy/spacetime.mrp,monsterstar.d,other,93627,94,107,gzip,0,997a6846a64664dfe8a445d64b156765ddf29efbdadce473fe2b0bcfa8d8ffc7,050300000302db00
gwy/spacetime.mrp,ghost0_movind.d,other,93745,39,38,gzip,0,d281313f679173e220a359de6f78e750e26bef77500870fd255fc6653e571de7,0400000001f7d400
gwy/spacetime.mrp,ghost1.d,other,93801,39,38,gzip,0,c59d0c928b76eae5ba083e82f2642bff9bfc40b9218687016ae3344e632c88bf,0400000001f7d400
gwy/spacetime.mrp,pk_banner.d,other,93860,36,83,gzip,0,49102e95d2b3712ca7aaad9d348dbcdf7659492b8721e7c0059d8db6f749c013,0900000001f68f00
gwy/spacetime.mrp,logo_2.bmp,media_resource,93915,18031,30720,gzip,0,b5430862c69efd4f5c51a1bd2e29bf52775e30ff36b6bf9231313ff9b86e5926,0000000000000000
gwy/spacetime.mrp,boy_fire_1.d,other,111967,59,68,gzip,0,7fe146896580e4e6a780721f1900ca50c6054bfe937e30e72029014fc6a2c4d0,0201000005fffb21
gwy/spacetime.mrp,logo_3.bmp,media_resource,112045,14448,30720,gzip,0,b4131bad5b1215d8906b7b051ce51b6de678a6879a44c7f56ccfd28386dd559c,2100210021002100
gwy/spacetime.mrp,logo_4.bmp,media_resource,126512,17072,30720,gzip,0,9096f7502ed9be505510d78b7f5e392ce4ef239a28ff878eb0979d8b68c0e04e,0000200020002100
gwy/spacetime.mrp,sk2_0.bmp,media_resource,143602,252,512,gzip,0,dee8ea152a5f500652b0d5a1a1505e068caf24b675bb20f6d6863bf560b54432,fd14fd14fd14fd14
gwy/spacetime.mrp,logo_5.bmp,media_resource,143873,12757,30720,gzip,0,fd732a87adb3085645f6abade44807cfb4a40a21f6652da8f265ca7e3af0bb6d,0000000000000000
gwy/spacetime.mrp,logo_6.bmp,media_resource,156649,18404,30720,gzip,0,99a6e1928d46c235e555c6b0628754291b75a5d93a34a131ad8e9f424454ecd4,0000000000002100
gwy/spacetime.mrp,logo_7.bmp,media_resource,175072,19565,30720,gzip,0,dcd92cd1a4b6bab0068764ae588592d2b7b58201be859be9c8930dbebda79a4e,94a53adf349de829
gwy/spacetime.mrp,logo_8.bmp,media_resource,194656,18696,30720,gzip,0,b73c4c4dc321d90cefcf03f55d4698c4de655f39c6630c0483f78586b44600a5,d9d619dff9def9de
gwy/spacetime.mrp,yun.bmp,media_resource,213368,116,396,gzip,0,ca6ed16dd2c908ed17ef8cbee2f99dfd01110590f4f31ef8138ba123003f404b,1ff81ff81ff81ff8
gwy/spacetime.mrp,change.bmp,media_resource,213503,473,968,gzip,0,748b5af8d67bbc134943f484e0b17117911c708cfdfd11b35dd1284467e92d33,96f396f396f396f3
gwy/spacetime.mrp,msblank5.bmp,media_resource,213997,321,4050,gzip,0,6818f902d8da18aef1dc7ff00225acccf56542658c617661850886d72c87e6e1,1ff8010801080108
gwy/spacetime.mrp,bag.bmp,media_resource,214334,300,512,gzip,0,62d3f7bc7e308588bd9e0c1fca5e09ea8bb36c46f188d322378d397fdfce0270,1ff81ff81ff81ff8
gwy/spacetime.mrp,msblank3.bmp,media_resource,214655,309,4050,gzip,0,44aeabcfe45d4dc97748e8dba9b7ccec984191f92aad2365d0fb2c16328a1ae3,1ff8600060006000
gwy/spacetime.mrp,mappoint.bmp,media_resource,214985,483,2576,gzip,0,9be891ff87631ed61df0293aca28128d8262cd1dc4e050f82789ad506cbd9ced,1ff81ff81ff81ff8
gwy/spacetime.mrp,head.bmp,media_resource,215485,750,1428,gzip,0,9e6cb387562dfa0ccd232a935a099d92ac611caf1d09316140c1fc92757b5f05,1ff81ff81ff82430
gwy/spacetime.mrp,mpselect.bmp,media_resource,216256,127,1458,gzip,0,cd0cecc36b61de9a9fdd52135c4fa7b37fd86918131fba18daa76a6cbcf00c4a,1ff8c805c805c805
gwy/spacetime.mrp,sk2_10.bmp,media_resource,216402,271,512,gzip,0,5241f8e5d0510497a201dfc0340bf2a7fb7409a9a999993d446ee01f65e094a5,fd14fd14fd14fd14
gwy/spacetime.mrp,npc15.d,other,216689,46,32,gzip,0,d253e6a706205dc35603e971f3f6e7e2352f899228d0ba64309ef1b0f04d2a6c,020f020002f7f503
gwy/spacetime.mrp,sk2_11.bmp,media_resource,216754,216,512,gzip,0,f861f5c0e40563c24df9e676f9e2d81c56a763aee2d73c4728fcd2b3ecca6ccb,fd14fd14fd14fd14
gwy/spacetime.mrp,sk2_12.bmp,media_resource,216989,191,512,gzip,0,1776dd443f00c98cf8aae48e859726a716658a18862775431734dfe7c428d2ae,fd14fd14fd14fd14
gwy/spacetime.mrp,i3.bmp,media_resource,217195,251,512,gzip,0,1b50db4429ad8a3fe74b02a9821799b6ba4d316117686e8e14d9aa7be38e2b50,fd14fd14fd14fd14
gwy/spacetime.mrp,i1.bmp,media_resource,217461,188,512,gzip,0,937a6855b68b0f50dedd07ee992f7992f347bbbd3063ef151635589ee058cb27,fd14fd14fd14fd14
gwy/spacetime.mrp,i0.bmp,media_resource,217664,208,512,gzip,0,a0a037d45895577b8b4dc8f95ec099b060403664fa9715d355119931e525b17f,fd14fd14fd14fd14
gwy/spacetime.mrp,i7.bmp,media_resource,217887,274,512,gzip,0,13257c3e5d4e84317359abd8c85ccd4919bd79fb13400ad632c1ca5275b8a73b,fd14fd14fd14fd14
gwy/spacetime.mrp,i6.bmp,media_resource,218176,259,512,gzip,0,09d1761fba42b0c978090680c27e1eb9ad8f55183bb62e0d5228eece4fa0e2da,fd14fd14fd14fd14
gwy/spacetime.mrp,i4.bmp,media_resource,218450,187,512,gzip,0,adbff00f68adcf5726a47a53371f246501d9fe312d793b2a6a6357f4ab94c3b1,fd14fd14fd14fd14
gwy/spacetime.mrp,sk2_14.bmp,media_resource,218656,225,512,gzip,0,4cad05f0f477a352e25b2a9e9e56a4bce31c4ae9eb1072cd99b7d401c868de85,fd14fd14fd14fd14
gwy/spacetime.mrp,i9.bmp,media_resource,218896,277,512,gzip,0,6493e1f3bda25e6aaacbd991d80160bd5edca541427da79dd4562b672f2067a4,fd14fd14fd14fd14
gwy/spacetime.mrp,boy_movind_2.d,other,219196,81,71,gzip,0,6775f144e9bacbd5dbd58b62ff277876eba7a082751dc16ab43f15e0eba1f399,0301000003f8f50e
gwy/spacetime.mrp,boy_ride_2.d,other,219298,64,86,gzip,0,6ada362f16bb1921e84f775bdad5fa1b810695aca7a5d280e1bac701b509df9c,0401000003f8de0e
gwy/spacetime.mrp,i167.bmp,media_resource,219379,307,512,gzip,0,99ae206f8c204eef7a98fbf657db67c8c99fad999962163a529ebb85faa003a8,fd14fd14fd14fd14
gwy/spacetime.mrp,arrow.bmp,media_resource,219704,118,336,gzip,0,b5a88745ec82be9506779cfff62263cb396484127a70411f832dcc9af3888431,1ff81ff81ff81ff8
gwy/spacetime.mrp,sk19.bmp,media_resource,219839,244,1872,gzip,0,543ba6a72df229bed9228b52001d3b7894785fbdcd73655cc8f35d418b28a458,1ff81ff81ff81ff8
gwy/spacetime.mrp,sk18.bmp,media_resource,220100,545,2520,gzip,0,cc3c48173a630e39e5897be267e8a1cab96febbc2eb6cea42397a7536750f1b0,1ff81ff81ff81ff8
gwy/spacetime.mrp,sk21.bmp,media_resource,220662,518,2448,gzip,0,368e5e25bc78357b7cb681daa7860630eecab2ff6c760b7d3f72fabb1327ca56,1ff81ff81ff81ff8
gwy/spacetime.mrp,sk20.bmp,media_resource,221197,537,2030,gzip,0,b93ebb519610e2339945999d797f73b991eb4293ab85ea373c4b1d345252303e,1ff81ff800700070
gwy/spacetime.mrp,sk25.bmp,media_resource,221751,706,2664,gzip,0,5727d2029870f6d149025bdc76a3654fc31e0ca32c0e71fb41c30d4faa875c39,1ff81ff81ff81ff8
gwy/spacetime.mrp,sk22.bmp,media_resource,222474,423,2376,gzip,0,2c978028d6b949142df066a8c6668a6b1c39081437a16014bc7f816a8871ff1c,1ff81ff81ff81ff8
gwy/spacetime.mrp,sk35.bmp,media_resource,222914,346,2170,gzip,0,4e73873049f5ec005a5f790b36bcfbfba3b3e57aed51f070858cbb08ffecd50c,1ff81ff81ff81ff8
gwy/spacetime.mrp,e41.d,other,223274,173,448,gzip,0,3f03dbb567ae962a470a53fb6910ac73e59ecea5b556d81a3b5f94cac806859d,0000200229020002
gwy/spacetime.mrp,sk49.bmp,media_resource,223464,498,1924,gzip,0,db33eff2b1576e2fddd3c13535837fbc404ab605a992fcd23689c6645d64411d,1ff81ff81ff81ff8
gwy/spacetime.mrp,sk38.bmp,media_resource,223979,421,1716,gzip,0,31b666005cb1d8fb0eddb601081bf2602fe11584455e0e4d8437e4e1d48b26cd,1ff81ff81ff81ff8
gwy/spacetime.mrp,reditem.bmp,media_resource,224420,92,1024,gzip,0,e29e1b8526ece5f3138245fdd22bb2b2978b293f31b4695bec2bb719c382f0f0,c0c0c0c0c0c0c0c0
gwy/spacetime.mrp,sk2_4.bmp,media_resource,224530,242,512,gzip,0,98e3845e760149926f332726883a7b02258ac38d596256de930c2b4deb93cb0b,fd14fd14fd14fd14
gwy/spacetime.mrp,e43.d,other,224786,272,814,gzip,0,a140232f95f0ab90a08a7bbb89302d6965c89043a798f553c7891d16adf474ba,000095072b000003
gwy/spacetime.mrp,e47.d,other,225072,166,598,gzip,0,18841890b18963de33c28953a367419680f59df6aa40b8435362a740f030c2b3,00006b072f000002
gwy/spacetime.mrp,sklblank.bmp,media_resource,225259,75,512,gzip,0,6ae5cf537dd394bcbfccf0354c563ac91ad4b58349633a1e2ff307ffd40c548d,fd14fd14fd14fd14
gwy/spacetime.mrp,i88.bmp,media_resource,225350,241,512,gzip,0,e09be36301b2cafb01e9484c016daecc147e218a2f8857676cb09b6ebc3f9400,fd14fd14fd14fd14
gwy/spacetime.mrp,e19.bmp,media_resource,225607,395,980,gzip,0,04d548a3368c2e92aeab48e2b4702d5b9070ac73aed76fc08ce4703124793843,1ff81ff81ff81ff8
gwy/spacetime.mrp,e18.bmp,media_resource,226018,153,500,gzip,0,4f9d498d523d829e8530ab587b38d500f818b41c931abd2024cd8880dcf0de05,1ff81ff81ff81ff8
gwy/spacetime.mrp,listicon.bmp,media_resource,226192,184,800,gzip,0,2828abd633027d0d3a890438149f574eb1b626262689f92027ae3b21e24c75f2,1ff8411041104110
gwy/spacetime.mrp,e16.bmp,media_resource,226392,321,1508,gzip,0,1bc8697b74536bd19b2241190b3b6233f12bc48b70b9a122b33226c18f66befb,0210021002101ff8
gwy/spacetime.mrp,e15.bmp,media_resource,226729,325,1302,gzip,0,60a3937a3d9f7435701181e33c4ba8228f426fb06a3b14eb7fd53e61a28c3f96,1ff8c260c260c260
gwy/spacetime.mrp,e14.bmp,media_resource,227070,438,924,gzip,0,72e6221775841c83a2e9751e137f6c1b63e0387c92a021a16dfa0eb454b66995,1ff81ff81ff81ff8
gwy/spacetime.mrp,msgblank.bmp,media_resource,227529,399,4050,gzip,0,d42c85c765f2ce44bd88662e4c5e41825d6e993d5200408c18c5fbabe760ab39,1ff8000000000000
gwy/spacetime.mrp,e12.bmp,media_resource,227944,281,1170,gzip,0,328244a2bff2c4c971ab92b23f92d01061c16fa00a860729cf8960797d540328,1ff81ff81ff81ff8
gwy/spacetime.mrp,e11.bmp,media_resource,228241,707,2150,gzip,0,68b3195b9564b85cc02945ca0216928df0c5ac4bd1a904037511385c41a663f8,1ff81ff81ff81ff8
gwy/spacetime.mrp,e10.bmp,media_resource,228964,831,2646,gzip,0,0adcc6f8454a9970c0e1099582d717fb7bd90ac1d01751372dc7a55f6f245df3,1ff81ff81ff81ff8
gwy/spacetime.mrp,sk0_14.bmp,media_resource,229814,261,512,gzip,0,3450f3132f4520007ced41ab152f39b07d2fea3fe8eb82e458dbf4f1f2137f8a,fd14fd14fd14fd14
gwy/spacetime.mrp,i99.bmp,media_resource,230091,323,512,gzip,0,9e71e3af17346fb9e7217dc0f6862c04cbbd35e066cadf63b4318c5414d0d296,fd14fd14fd14fd14
gwy/spacetime.mrp,e8.d,other,230427,183,512,gzip,0,0cf8de306a6f7bcc8d79539885a09fa06eef29410385ddbecda53613a0b78590,0000200208020002
gwy/spacetime.mrp,e9.d,other,230623,127,332,gzip,0,3eb21a084b82bf79376e271cb783d1a9cce6961f629c7d9448b8d6108c645946,0000140209020001
gwy/spacetime.mrp,sk0_12.bmp,media_resource,230769,303,512,gzip,0,562da7f3c3d7d8a273542db83a6d20bddd5c6c93b8aa0e40739d8c346366e00d,fd14fd14fd14fd14
gwy/spacetime.mrp,sk0_13.bmp,media_resource,231091,301,512,gzip,0,870cd27ffbf6180560ee85b1e13f9eef40019457ae00af13dde00955c8fc3119,fd14fd14fd14fd14
gwy/spacetime.mrp,e4.d,other,231405,261,733,gzip,0,cd1d22b4a9736277c945c53c0b490e7dbe4edf660e15e0cfbb090c5e3674509a,0000380204020004
gwy/spacetime.mrp,e5.d,other,231679,127,332,gzip,0,8582fa9bb12337c3cced135ead350c3203ade9f79bba1466540ec7a043250e85,0000140205020001
gwy/spacetime.mrp,e6.d,other,231819,125,332,gzip,0,02ac23655e451826df5c4d6e5bdf00fc07a61142eb4a7d2a5415acbd2f392c4e,0000140206020001
gwy/spacetime.mrp,sk28.bmp,media_resource,231961,258,2014,gzip,0,e7a6cc9a09f8c5eec76074a5ceeb654f88c15d47991a9c11940e2ac9a5565dbc,1ff880fc80fc1ff8
gwy/spacetime.mrp,i95.bmp,media_resource,232235,173,512,gzip,0,23f2912c9ff8d59d32476a5517af4c497fb2dfd1dabaf27344401af72c220aff,fd14fd14fd14fd14
gwy/spacetime.mrp,i96.bmp,media_resource,232424,210,512,gzip,0,73dc39a0460413b6e0856bed2d0f291dd0ccc2afd2d75e6c6b7a8ae46f9d96ae,fd14fd14fd14fd14
gwy/spacetime.mrp,i97.bmp,media_resource,232650,283,512,gzip,0,5a2ef841d9af3c311cf3f7ebd239b36e0eb803e1c61c18012a533c9b656b8713,fd14fd14fd14fd14
gwy/spacetime.mrp,sk21.d,other,232948,524,854,gzip,0,19187331f2a8ec2f6e21c5b67d6505eb6276e04d49a16b4e08e401c846df11f0,0a15000003fee800
gwy/spacetime.mrp,sk20.d,other,233487,377,611,gzip,0,ef2c4ee4495db061eebeb298321c855d853ad25635323005bb467bc740b5c589,0d140000031cb500
gwy/spacetime.mrp,sk19.d,other,233879,84,68,gzip,0,453704328f9bb05bae3b1ec99fac15f01ed1ae85be0c586fb383713c1bfcf848,0413000001f0e200
gwy/spacetime.mrp,sk18.d,other,233978,35,29,gzip,0,ee6ee6a055a4c48a8d1cf4dad4a74a624d34c374e9d08f3d4ba17d78e62ce307,0312000001eed700
gwy/spacetime.mrp,sk40.d,other,234028,638,1007,gzip,0,849587762716210683513fef65142667b1ce85075c67b21a60b60e72d4f7466b,092600001133be00
gwy/spacetime.mrp,sk37.d,other,234681,174,221,gzip,0,e4b57e132e36a9605042ad13c2153ae33ce561c651c35fa3e1ea59861a77ac3a,0923000001f6f812
gwy/spacetime.mrp,sk25.d,other,234870,121,164,gzip,0,d80133695bc330a45fb01783e2c15373736fa13ef3b1902e33a07c1b2614f1b4,0c19000001f9f316
gwy/spacetime.mrp,sk22.d,other,235006,185,284,gzip,0,bd68b8190e779440cf811fdfc41e2f7f5084252df9c78384b15af4db6264659a,0616000004e5c51c
gwy/spacetime.mrp,sk48.d,other,235206,479,827,gzip,0,b1a49e263dcf1e5c8f0ba061bd40b3057b17cc426611460f50b5bf291add7d97,070b000002f5e800
gwy/spacetime.mrp,sk43.d,other,235700,194,308,gzip,0,e42ab68ee279c105af227fb637560a21074e14495c5909fb97170024d5a2e0e9,0a15000003fee800
gwy/spacetime.mrp,i147.bmp,media_resource,235911,300,512,gzip,0,3479be31e1b018ae29c06fdf565832abe1f41c417df708f78c740baf3b728ee0,fd14fd14fd14fd14
gwy/spacetime.mrp,i145.bmp,media_resource,236228,291,512,gzip,0,e5d79ea6282d6677b980d52fe77fd6a75ff0001923b1c1bd7412f290c455ead8,fd14fd14fd14fd14
gwy/spacetime.mrp,i143.bmp,media_resource,236536,267,512,gzip,0,f20dbc7323231c89775fbd39145384f5efc4eb7c1f069ac8b2cfdd5bb1612d86,fd14fd14fd14fd14
gwy/spacetime.mrp,i140.bmp,media_resource,236820,366,512,gzip,0,11ff551cd9d18f1e4b2666ca1a04ab934cf17d2beebccb81f20b0d04f9b2cb13,fd14fd14fd14fd14
gwy/spacetime.mrp,i27.bmp,media_resource,237202,210,512,gzip,0,2253bca61253563c6be0de6c5141fac14ea474450cdd8abd3da1f6b5e72631df,fd14fd14fd14fd14
gwy/spacetime.mrp,i23.bmp,media_resource,237428,213,512,gzip,0,5e3bde40c74849d6dda90424bae11ee564e2a2b2a22572c4935ea8d106d6ce1c,fd14fd14fd14fd14
gwy/spacetime.mrp,i149.bmp,media_resource,237658,299,512,gzip,0,a18608247cb2eb47c8d3b35f576fc14f8da69fa8b330ab3c1702b0fdb7cc077c,fd14fd14fd14fd14
gwy/spacetime.mrp,e31.d,other,237971,352,758,gzip,0,a4264df339d0160debd33cd24f5da1adff870d491502f817e0273ae6a8361681,0000b6041b000007
gwy/spacetime.mrp,npc7.d,other,238338,51,32,gzip,0,0b93f3e0d6223311140f9c7f43700452a3daf509642e0ccd45b8da8a7c882d60,0207020001f7d800
gwy/spacetime.mrp,npc6.d,other,238404,31,11,gzip,0,e47bfa3bbfbaa9b1c804a6878799d54b8864014abbadb1dad0a4cd67b2b604a4,0106060001dec300
gwy/spacetime.mrp,npc5.d,other,238450,56,38,gzip,0,95a6d70bd03d1f5b099a4e582aa5f269f9ba6911c849779ad96ba3822576920b,0205020002f5d306
gwy/spacetime.mrp,npc4.d,other,238521,46,26,gzip,0,87c2c1ca67b601bb4f2e2d9712b564415dfd3255548d3a61dca39a9cef35c523,0204020001f6d700
gwy/spacetime.mrp,npc3.d,other,238582,43,32,gzip,0,8a49c67a6c8571b97189ceb80bb28ada0681fc2c1d2160d1a8b97de0a5a0c364,0203060002f7f40a
gwy/spacetime.mrp,npc2.d,other,238640,43,32,gzip,0,945151ae3ccbba14ac3beaf70511c4a2713c7114b6591f849f31204c07388919,0202060002f7f504
gwy/spacetime.mrp,npc1.d,other,238698,69,68,gzip,0,2a73b73ee46279a709c5f3321f96fb6620156751ecc87370b2a04805e0addee8,0201060005f8f40e
gwy/spacetime.mrp,npc9.d,other,238782,43,32,gzip,0,b416b35219aa906e1a8371788a8f7f5c4aae8780aad5f5c4e5d8d13a46df48c1,0209020002f7f402
gwy/spacetime.mrp,npc8.d,other,238840,38,29,gzip,0,112d8ea51c397b32db1d3e18bb20b83bf0cd64a2c86902767759bc2f2004cbc3,0308020001ebbb00
gwy/spacetime.mrp,no06.bmp,media_resource,238895,265,2160,gzip,0,c31c54f33d81b883341cbc53075249a3cdfbc301e717d95a1339df0a151a815f,1ff8a0c0a0c0a0c0
gwy/spacetime.mrp,money.bmp,media_resource,239178,125,220,gzip,0,1aa9005dd883dffad100240a33f5a485d63d9092f2cd97771c14698f2f85f74f,1ff81ff81ff800aa
gwy/spacetime.mrp,no02.bmp,media_resource,239320,153,1050,gzip,0,66e7c325c8e19dedeabc396704e1457fd631fa5a77b1750a4aea72eace97983c,df11df11df11df11
gwy/spacetime.mrp,no05.bmp,media_resource,239490,316,2400,gzip,0,e59f517f66b69ab2865c439f1826d73bd38d017a5b94ed13dc7b5c065fda8372,1ff8800b800b800b
gwy/spacetime.mrp,skill_cd.bmp,media_resource,239827,135,3136,gzip,0,51c33710044fe0f77238c1222439f0cdd11d9b7cac375c97bead8c4be9f43dd7,1ff800001ff80000
gwy/spacetime.mrp,itselect.bmp,media_resource,239983,157,968,gzip,0,8ada5c8d4f8ae09ec958d65778e8dc2e65cecf1ea55873c0e0a849f12fc88034,4170417041704170
gwy/spacetime.mrp,itblank.bmp,media_resource,240160,177,1296,gzip,0,d77d206f509374f06f921d4ab5bbb685336825e09a64716e4ca6e1d139cb6e12,8231823182318231
gwy/spacetime.mrp,slash_fire_1.d,other,240360,65,50,gzip,0,e0cd5acf9b6cc532e3bb0495df1386ad9d64f1c17e74a79e1ad5e49b4e85c635,041f000002fcd700
gwy/spacetime.mrp,msblank2.bmp,media_resource,240446,311,4050,gzip,0,0b2c97f440313d8449507265f44108e5c12d29944424be8ab1a39cb2412bd0ea,1ff8410841084108
gwy/spacetime.mrp,death1.bmp,media_resource,240776,341,1156,gzip,0,9ae2aa369afe86f5772e0d41b0ed6f6253c2e5da25562381582412d554541933,e128e1281ff81ff8
gwy/spacetime.mrp,e39.bmp,media_resource,241133,377,1470,gzip,0,e8a85bd82598ed323c75d5cd80df4a279dff6d16356644ada89c2199c85f44a0,54025fc75fc78218
gwy/spacetime.mrp,e38.bmp,media_resource,241526,932,1740,gzip,0,2ce22b720f1963b9cc3c0e8f19470cb076332945719b240d909bae9e391416f8,1ff81ff81ff84819
gwy/spacetime.mrp,e30.bmp,media_resource,242474,720,1862,gzip,0,3a4358059c99a92c70efc929966f15207b44f282129d16aa9491c28273ca36b5,dfff25d81ff81ff8
gwy/spacetime.mrp,e33.bmp,media_resource,243210,640,2016,gzip,0,c48c16c6d86e87197f290864cefb3b2221e83be9ae018bd13734af278bb875c9,1ff81ff81ff81ff8
gwy/spacetime.mrp,e35.bmp,media_resource,243866,847,2184,gzip,0,f5342f4eb96d2320c54c811e542d35ccc01c8919e03ad3d394e788255722889a,1ff81ff81ff81ff8
gwy/spacetime.mrp,e34.bmp,media_resource,244729,661,2294,gzip,0,ea93b5e0563b5635c406dddb663bdb89134efc41c4d35f225e7dc12eae9de041,1ff81ff81ff81ff8
gwy/spacetime.mrp,e37.bmp,media_resource,245406,1181,2450,gzip,0,f5f23d16aee9ea4f114f879f7bd56e1e43c964813cb7b494403fd3cd17a81cf6,1ff81ff81ff8a130
gwy/spacetime.mrp,e36.bmp,media_resource,246603,1140,2304,gzip,0,7ae3697fd84907679c260bfefd652670e27ef3ec44b9996e93d5b1f01cdf23d1,821882188218285a
gwy/spacetime.mrp,e22.d,other,247757,128,332,gzip,0,2e28bbb15230b384e3db1645e399e495c519f0f05099ad58531a51837d641709,0000140216020001
gwy/spacetime.mrp,e23.d,other,247899,127,332,gzip,0,d6350fa024b9ac709be447ab850a30e38ea749fe25edaf2807f4a6ca8baea933,0000140217020001
gwy/spacetime.mrp,e20.d,other,248040,127,332,gzip,0,7536530d79b59bfe379b20b5721dcf7d19afeb74e49981d8efc566d6585f6db0,0000140214020001
gwy/spacetime.mrp,e21.d,other,248181,130,332,gzip,0,32db1a81ec16cced1f3bee3b0372938ebfa5ba5613daa2af9bd96aef5d46cacf,0000140215020001
gwy/spacetime.mrp,e26.d,other,248325,128,332,gzip,0,67cdc4cb197952bfb93d6acee6e7070059d47ac600b6a6b05c76abec123786f2,000014021a020001
gwy/spacetime.mrp,e27.d,other,248467,354,758,gzip,0,f939bcb7fac03e5acf86e65a849abc91b4de9389929f943f3e52fa39e907f531,0000000000000000
gwy/spacetime.mrp,e24.d,other,248835,130,332,gzip,0,0df936368f074ffc5ffb5011604fdeebf035c012428ce09235aae187cf73d3fb,0000140218020001
gwy/spacetime.mrp,e25.d,other,248979,129,332,gzip,0,df3bce1cf998be5a7401a35fede1a56c871432c579f49bb0cfc464cb2fb21b25,0000140219020001
gwy/spacetime.mrp,girl_stand_1.d,other,249131,72,68,gzip,0,d759d9d225134561873efcf28c7f5343c70e0efe222610d8bb2a96871a5491d0,020202000507db20
gwy/spacetime.mrp,girl_sit_2.d,other,249224,52,110,gzip,0,5e8ab244fa092a4431941aa1b503be57ffc22c94fa08e9cd3511893a6fbb0f97,0402000004f7de0f
gwy/spacetime.mrp,spacetime.d,other,249296,12881,23287,gzip,0,edb36abb1515e40db47e5a6854e840d6ca87fa11503652738399414b4a520d5b,000003ce00535400
gwy/spacetime.mrp,girl_stand_2.d,other,262200,72,68,gzip,0,e82824f441a4f02cfeaa1b1cb6de7be8db0263b082efee58d3c197f966d58c3f,0202020005f3db1b
gwy/spacetime.mrp,sk1_12.bmp,media_resource,262291,258,512,gzip,0,5b10d05004c0da0c4f8304eaad786e35b8958053d1404e6098c3e0a00598aa33,fd14fd14fd14fd14
gwy/spacetime.mrp,sk1_13.bmp,media_resource,262568,213,512,gzip,0,c1bbf6b38a77c88cbf5c33e04fc5703dfe6b9299898d2c3c6fbdbd19ff208e21,fd14fd14fd14fd14
gwy/spacetime.mrp,slash_fire_0.d,other,262804,63,50,gzip,0,432b974a2ca0759acc17bb4f79e44cef51118b53ca238b64107bd16e93d3f94c,041f000002ecd733
gwy/spacetime.mrp,imgconfig.d,other,262887,2342,6182,gzip,0,59af0224c8f1a8dc50caf50829bdd025eefbf4ab571f0e508cdf1902f2f58e6c,6c69737469636f6e
gwy/spacetime.mrp,e28.d,other,265243,219,794,gzip,0,0bd96f4751cdf4a2a17935835b07c413ddbc25368a6f9da6f699c0ad6f051ed3,0000000000000000
gwy/spacetime.mrp,i120.bmp,media_resource,265479,140,512,gzip,0,067fd8bd4996fad4bdb960ddb0ddcfdfdb3c418b3b1decce88bf85ee0797ed1d,fd14fd14fd14fd14
gwy/spacetime.mrp,i121.bmp,media_resource,265636,305,512,gzip,0,795d0063de3c2059d12a0162d7b1423cdcd76ee681ade4bf3643ac21d2da9755,fd14fd14fd14fd14
gwy/spacetime.mrp,i122.bmp,media_resource,265958,122,512,gzip,0,7084d8034a613587b3c88d2d4cf5584e5fe8ee79dffc7de89bdf0e839b0f5970,fd14fd14fd14fd14
gwy/spacetime.mrp,i123.bmp,media_resource,266097,285,512,gzip,0,d5401744f8149c6b4b79ed887ad80710ddd5f4e0706c2f8bc61023d7cd5ecf4e,fd14fd14fd14fd14
gwy/spacetime.mrp,i124.bmp,media_resource,266399,297,512,gzip,0,cee96d4fd0a2a5b54976be61d55e002171c883cd842c961ea0d0f2d62afd727f,fd14fd14fd14fd14
gwy/spacetime.mrp,i125.bmp,media_resource,266713,417,512,gzip,0,ba28ebd4559962b2788b8d38f068c9b347d7d4f427d635e57f25298ea5c576a0,fd14fd14fd14fd14
gwy/spacetime.mrp,i126.bmp,media_resource,267147,323,512,gzip,0,dbea6d90dd53f7ae6ad85f6c11189b15cdd97486fcc77b6cae5ba0feb2c522f8,fd14fd14fd14fd14
gwy/spacetime.mrp,i127.bmp,media_resource,267487,294,512,gzip,0,1a5e5fda17611393184f51c91afde538cae78c1e0c4b3399f49643a78ce83a9b,fd14fd14fd14fd14
gwy/spacetime.mrp,click.d,other,267797,88,74,gzip,0,ba0e4df1f93fd307c7d94b128acc81c8290d5e023824c1544b3e56d700d2e656,0400000003fbfb36
gwy/spacetime.mrp,yun.d,other,267899,78,86,gzip,0,433b835dbdba0898ab3fff301aecb16ad845bc604133be4909d810d2f033a86e,0400010003f4cb00
gwy/spacetime.mrp,tchmenu.bmp,media_resource,267997,221,1536,gzip,0,2afa0bccb605caa9a06ff33c7b85681ed55e99201a2c1820f1d893a96dcad373,1ff81ff81ff81ff8
gwy/spacetime.mrp,arrow5.bmp,media_resource,268237,1186,5632,gzip,0,85cfe409d5c11568a7fe58a6aae1be92d7b8d90e8b39809f15e6f91097149f6d,fd14fd14fd14fd14
gwy/spacetime.mrp,no04.bmp,media_resource,269440,151,1260,gzip,0,35c9d43679dc27e7e564f47ba49286dab8a28d67c2dcbd749868d1b3ed4b3a8b,1ff81ff81ff81ff8
gwy/spacetime.mrp,arrow4.bmp,media_resource,269610,229,6720,gzip,0,2ff0b00373ef9079ae9815d45bcb6d8fe86358f8fa6d3264a52f32092a9c27b7,1ff81ff882318231
gwy/spacetime.mrp,skill_g.bmp,media_resource,269859,270,1600,gzip,0,2ab0c2fc99c3577e1014ee796ee05ed189540f0833756a3217f45470ef8b0177,1ff81ff81ff81ff8
gwy/spacetime.mrp,npc0.bmp,media_resource,270146,221,972,gzip,0,864da7e04eccf9a07caa403553ae2fb832053af67e68f26b6fa2326bac5454d1,1ff81ff81ff81ff8
gwy/spacetime.mrp,npc3.bmp,media_resource,270384,696,2624,gzip,0,080f18fd4fccba93a60524241b5a0f6f71a41e6f05d1e0d371517039bdfb57ca,1ff81ff81ff81ff8
gwy/spacetime.mrp,npc2.bmp,media_resource,271097,518,1760,gzip,0,9f0954556b54ab2abebb3f87521690685642aa50b715bf1d1fcec2a03b5d4b4a,1ff81ff81ff81ff8
gwy/spacetime.mrp,sk1_11.bmp,media_resource,271634,179,512,gzip,0,4266c2e63d037b993c7fb0d6032145e788a34f9ecf6d37b54cec205eabf8bd8f,fd14fd14fd14fd14
gwy/spacetime.mrp,npc9.bmp,media_resource,271830,615,2400,gzip,0,c5509addbf0bd07a9aea76dc4bf6f771e987f11ea132d543a27cd51ce5e0a6b4,1ff81ff81ff81ff8
gwy/spacetime.mrp,npc8.bmp,media_resource,272462,3364,16644,gzip,0,e9a3b4a7ccc6cd5cb468e894d7a7a0dac49897f58cad64648cfe5072fb9f1157,1ff81ff81ff81ff8
gwy/spacetime.mrp,select.bmp,media_resource,275845,121,484,gzip,0,1612cffe49c75ed0182f1cfd17829a553a02c4b2091e521a41cb9f437aa02fd3,1ff81ff81ff82c63
gwy/spacetime.mrp,msblank4.bmp,media_resource,275987,310,4050,gzip,0,0ad8c46bd7910f30257d47ef3445b626f228be014f4a701363020a7d44ce66df,1ff8410841084108
gwy/spacetime.mrp,e29.d,other,276311,129,332,gzip,0,8a782d12e59a7ea79d8a642f51924b6ca069ff20bed6f2f4f4b54146da5298f5,000014021d020001
gwy/spacetime.mrp,e50.bmp,media_resource,276456,1465,6018,gzip,0,be1b63d17e601c88c5097fb2e82a05d0e4ecd0b31053998780631959c48f5e32,1ff81ff81ff81ff8
gwy/spacetime.mrp,i59.bmp,media_resource,277937,243,512,gzip,0,f056ab393230911e54aecbd1b21a0a68a16daf28c55f196159de2610090494ad,fd14fd14fd14fd14
gwy/spacetime.mrp,i56.bmp,media_resource,278196,250,512,gzip,0,c612b59295c36ab76385bdb6707c54313394ea4b03fd29c8c8bd738b77f01c2f,fd14fd14fd14fd14
gwy/spacetime.mrp,i57.bmp,media_resource,278462,308,512,gzip,0,6104381b4ddefa86aa9e7841a22979261111b5372285438aff6d4f1c96c61782,fd14fd14fd14fd14
gwy/spacetime.mrp,click.bmp,media_resource,278788,714,3200,gzip,0,e013f29d2f7f648b4e0bf936a28bf1614c4cc6956597b693a9df403d33136f54,1ff81ff81ff8e12b
gwy/spacetime.mrp,i51.bmp,media_resource,279518,290,512,gzip,0,f9e7f3f65a44caedca62c8e3d299369dd46a9bf5b3afcc63db5e20d7d0c1e802,fd14fd14fd14fd14
gwy/spacetime.mrp,i52.bmp,media_resource,279824,275,512,gzip,0,52e2054f566168edeb19d5863c89ddee49e4fdbeab93b553d7f238bd33283f18,fd14fd14fd14fd14
gwy/spacetime.mrp,i53.bmp,media_resource,280115,264,512,gzip,0,37de7b4a97f321e9b105cb7d22da73f27220b491be6b9433f83fdbbb81b0d7cf,fd14fd14fd14fd14
gwy/spacetime.mrp,boy_stand_2.d,other,280401,59,56,gzip,0,7e1c8149444add8d381f44816819c9be7ee97a9159ebe1604374710ac8946186,0201020004faf32c
gwy/spacetime.mrp,boy_stand_1.d,other,280482,59,56,gzip,0,ac2c17d675dec8fbaa50b23ef51af5199a883980979d109dfc3f80904c79df3e,0201020004faf321
gwy/spacetime.mrp,boy_sit_2.d,other,280561,46,86,gzip,0,7f5b6b1b3036b8b4882528256d8b61752eac05e22e6c2565d610a20acccb5ffe,0401000003f8df0e
gwy/spacetime.mrp,boy_sit_1.d,other,280627,46,86,gzip,0,5126df59b9a77a9310c861a99ec14cd961f82cc97c1b64511d7fe84433c22efb,0401000003fbe622
gwy/spacetime.mrp,sk2_13.bmp,media_resource,280692,260,512,gzip,0,19d06f2e307ea0b234aa2f4441257ceedfa4e35d62b6bd9a506c4827579f67da,fd14fd14fd14fd14
gwy/spacetime.mrp,boy_ride_1.d,other,280973,64,86,gzip,0,85dfed072d9643ee38eafa1b099991332a73bc6bc30e2d9be704eecb77678c9a,0401000003fbe522
gwy/spacetime.mrp,sk2_15.bmp,media_resource,281056,223,512,gzip,0,9810b5f96b5ff588596504994909c8f09ed151868096daef965a70bcec742618,fd14fd14fd14fd14
gwy/spacetime.mrp,boy_movind_1.d,other,281302,79,71,gzip,0,03453b0ee4893e2e4b275f96b8a112504d73896faed241129500d5e8329c26e8,0301000003f9ed1d
gwy/spacetime.mrp,boy_fire_2.d,other,281402,59,68,gzip,0,c1cf0334cf08e16207b4274061d6cbd2c50cee07b8196f70374a63527273b798,0201000005fbfb32
gwy/spacetime.mrp,gift.bmp,media_resource,281478,306,1296,gzip,0,211d1dc2e1e0cc83825aaec98f41cc616475261d84dfd3ac703d778cb282c8f0,1ff81ff81ff81ff8
gwy/spacetime.mrp,e17.bmp,media_resource,281800,333,966,gzip,0,7bbc79f603afba0bda7d3ef4992e728b3b9830baf16ce17d1b2b9a4bf91b9af5,1ff81ff81ff81ff8
gwy/spacetime.mrp,slash.bmp,media_resource,282151,1789,6000,gzip,0,cc5abf1d6cfe5bf4120e268097926c43c4ec883624aa970df969c1c5053a2be6,1ff81ff81ff81ff8
gwy/spacetime.mrp,face.bmp,media_resource,283957,369,1440,gzip,0,022618de07b63c50a6c30660814379551bb71cf34d047b25707769192ebb82d2,1ff8e17ae17ae17a
gwy/spacetime.mrp,mnword1.bmp,media_resource,284346,1964,23400,gzip,0,d94e227ad896d28e5dc3426a80c9de9a1bbcae9cecc29156f04fc916166247e2,1ff81ff81ff81ff8
gwy/spacetime.mrp,mnselect.bmp,media_resource,286331,142,882,gzip,0,267c0c68bb646e7ea7d4aa2dbef74f38ff737188413114e22774b797bb984f2b,1ff81ff8e070e070
gwy/spacetime.mrp,e13.bmp,media_resource,286489,268,1116,gzip,0,e7835629d041560a559103d81a8b5bb16c676ba7f8be34de799d8124ad728ce0,1ff8000000000000
gwy/spacetime.mrp,slblank4.bmp,media_resource,286778,201,512,gzip,0,cf99f11f26eafb877432544c914346d5246506e95b7b6d8ae9a9e24d7ad534ca,fd14fd14fd14fd14
gwy/spacetime.mrp,e53.d,other,286993,183,514,gzip,0,3bf0474e3a6b7f37d72c8daff9c9a52d01d7ece36bdcd4843b2a3f26fe6607ea,0000470731000000
gwy/spacetime.mrp,e52.d,other,287190,267,514,gzip,0,db6dc2dcbb58bab4f13309a093d9017232990b73c9023d0855375958afbd7fce,0000470731000000
gwy/spacetime.mrp,e51.d,other,287471,270,514,gzip,0,5564956a146ebebc927e75b81044ae8266a9d10b7a773be496694c087a12ce92,0000470731000000
gwy/spacetime.mrp,e50.d,other,287755,401,790,gzip,0,18765ccdcc18f4da3768009a3099dfe905b0b618d192cf4f2d28c983b8a22abf,00008f0730000002
gwy/spacetime.mrp,mnblank2.bmp,media_resource,288177,159,882,gzip,0,05532a736faee2e8e0798ef383336f23e5b008db9afe7d8db7295e42a0864a0c,1ff81ff8e330e330
gwy/spacetime.mrp,e55.d,other,288350,276,994,gzip,0,6994aae230238d456fb3a3dc8124ef62d3c1970e5e0f5ea286731bcaf8eff572,0000b90732000004
gwy/spacetime.mrp,e54.d,other,288640,279,994,gzip,0,44caa31d76bc88ca4b3e86fa57b1fc0cfbf0cac94ebf6a4eb56156fb75590051,0000b90732000004
gwy/spacetime.mrp,mnblank.bmp,media_resource,288939,181,1152,gzip,0,f7d5e5179f2b93e83d1dde816b21c7eca25fe1fa8793af079b76a03713d7a190,1ff81ff820382038
gwy/spacetime.mrp,e56.d,other,289134,285,994,gzip,0,4b29eac677db89cf2beb32283c91418dcd1a6f8b5fda9a2167a824e4b43cac8e,0000b90732000004
gwy/spacetime.mrp,i76.bmp,media_resource,289435,320,512,gzip,0,0451af4bed3267102c5405fa16b1e7b7fcfc1e97723381a87104760f56771e19,fd14fd14fd14fd14
gwy/spacetime.mrp,i74.bmp,media_resource,289771,266,512,gzip,0,6e14bfaf74eb2565056bd4b83263ec886b0eb4a068f32063b3f008af5bd184ab,fd14fd14fd14fd14
gwy/spacetime.mrp,logo_1.bmp,media_resource,290056,14567,30720,gzip,0,a9d16c2e73df747515299b190a0686735f2ff16c4b2b7ba27290956da8b5b41a,96e696e696e696de
gwy/spacetime.mrp,sk0_15.bmp,media_resource,304642,245,512,gzip,0,35cf7679f31ba974d5576090243cdabd301f80926ab218af332e6ca944d0cb3e,fd14fd14fd14fd14
gwy/spacetime.mrp,npc14.bmp,media_resource,304905,2393,8208,gzip,0,43c98502733d114600f05860ce7ac73465029322baf3bd41c7fc5c4a2d80374b,1ff81ff81ff81ff8
gwy/spacetime.mrp,i175.bmp,media_resource,307315,292,512,gzip,0,8627c62a572b31d46ef619b68e98a66be059942407fee8b7a29e07d87cefd5d0,fd14fd14fd14fd14
gwy/spacetime.mrp,i174.bmp,media_resource,307624,422,512,gzip,0,bc8a0f8467a8a96b7c13bb2a4fb9392d1584712da151dff650b21f6d80f2f182,fd14fd14fd14fd14
gwy/spacetime.mrp,i173.bmp,media_resource,308063,441,512,gzip,0,c608740f0996fad81501bee7a6beb724433636177714a8e37111983afb4f759e,fd14fd14fd14fd14
gwy/spacetime.mrp,i172.bmp,media_resource,308521,253,512,gzip,0,3850c9dab023177fc176fec2d51b5e7a50457b253791b18f7d0aba49835dc408,fd14fd14fd14fd14
gwy/spacetime.mrp,sk0_11.bmp,media_resource,308793,346,512,gzip,0,c1cea7a83f518659a7d2c0b6bfaba31f544ab0b37e1ad114771a5e2f8822cb66,fd14fd14fd14fd14
gwy/spacetime.mrp,loading_s.d,other,309159,72,92,gzip,0,0d7f8c7ecdeb88ed1f8b561b06d60cad0f1a5e5ea5f544e90a2ae40182c326f4,0600000002f3d800
gwy/spacetime.mrp,death1.d,other,309248,162,221,gzip,0,91fb48c8950524c3afb61467e1c38b68b73f39e86c12f3ad543243ad19182395,0700000002f0d400
gwy/spacetime.mrp,door.d,other,309425,51,62,gzip,0,31d216e090409015c090b504ae98d01e36275d54bb9aa409d0319d5cffd4eca3,0400010002f4d000
gwy/spacetime.mrp,0_1.d,other,309490,718,1480,gzip,0,ae8ce1810bd0959aad08f1104f5fbfbf94c7f5b27baed638723b11da9e90752c,0000320204020003
gwy/spacetime.mrp,0_0.d,other,310222,679,1468,gzip,0,402f2e776f1fd082eac380f9b71d4c5f6041364237ef17320252d69740f456bf,0000380203020004
gwy/spacetime.mrp,ef2.d,other,310915,52,35,gzip,0,23be2e0c8be133122a43d834356696a78ecd4527a775646959342b8ee9ae215d,0300010001e3d500
gwy/spacetime.mrp,ef1.d,other,310981,104,83,gzip,0,1bc64794eea3e78e4c1616f8ec040af82f7c6a7bfa1e662f9715857e3b3b42b3,0300010005f7e42f
gwy/spacetime.mrp,ghost0.d,other,311102,39,38,gzip,0,d281313f679173e220a359de6f78e750e26bef77500870fd255fc6653e571de7,0400000001f7d400
gwy/spacetime.mrp,death2.d,other,311158,115,125,gzip,0,31dd47dbf50522f6f29562f9119ffa181ecf3edd34344f6d4469fe864e7086fc,0300000001f5e716
gwy/spacetime.mrp,npc6.bmp,media_resource,311290,1164,6100,gzip,0,60d94167b821e97ee0bd63940ddbfc7c3fa47fafe1a174c17bf26184a04323a3,1ff81ff81ff81ff8
gwy/spacetime.mrp,npc1.bmp,media_resource,312471,714,2706,gzip,0,31504c33a052423881c2de8ffff44d3e7d6459ea3691ccfc4ba57473503061f8,1ff81ff81ff81ff8
gwy/spacetime.mrp,e30.d,other,313199,294,872,gzip,0,78dc82430fd7612e54f555c923d53e904dcdb50e88871eac7dccf932ba5cadbf,000038021e020004
gwy/spacetime.mrp,e7.d,other,313506,129,332,gzip,0,1a3c93a63048426cf9b0c0e98083334d3445b4178f995573605b3a585fc1028a,0000140207020001
gwy/spacetime.mrp,sk1_14.bmp,media_resource,313654,237,512,gzip,0,f5f839528c2e8c16c5161f2ab01df5734e455331d6dd40136c09ab1d3aeff275,fd14fd14fd14fd14
gwy/spacetime.mrp,sk1_10.bmp,media_resource,313910,128,512,gzip,0,d7b601eea8ea0b51275d79008b95c5b965ede0622138aafaaca4efbd82a5263c,fd14fd14fd14fd14
gwy/spacetime.mrp,no01.bmp,media_resource,314055,279,2112,gzip,0,3ed4367668d507d019ff1bd66553280a5af0aa096df6482ec05cacaa6b901960,1ff8df11df11df11
gwy/spacetime.mrp,slblank3.bmp,media_resource,314355,847,6630,gzip,0,07970a0f197aa2ca285bfc1be620bbe1309e768b18a423c0dee6e9a150ab38bf,1ff81ff81ff81ff8
gwy/spacetime.mrp,sk1_15.bmp,media_resource,315221,303,512,gzip,0,60e9054c7dcef87671dcd7ad7ca4e889299d5afe9588bb3d0899f39e0cec6382,fd14fd14fd14fd14
gwy/spacetime.mrp,n_1.bmp,media_resource,315540,1899,4704,gzip,0,b8621876e3ceef02995c7af6111f91e366d0c588d7d524ce4a2a73da2715d003,1ff81ff81ff81ff8
gwy/spacetime.mrp,n_0.bmp,media_resource,317455,1995,5280,gzip,0,00ea9c3f47cb5b9728dc5b63df0fd85870d5929dedf3f596238a8a89df22d68e,1ff81ff81ff81ff8
gwy/spacetime.mrp,npc5.bmp,media_resource,319467,659,2538,gzip,0,67434d9c1e4401714a7d3d715bf57f15df30f4c6e14540e1161e129d082c2fb8,1ff81ff800000000
gwy/spacetime.mrp,e3.d,other,320139,125,332,gzip,0,3ac3cc44dba3b2afe291eb5d87fa8ea83dd506875e7e136c7bbbf21943dd84e0,0000140203020001
gwy/spacetime.mrp,ltlestar.bmp,media_resource,320285,1090,4350,gzip,0,057150ca39a8c878ae46032fe9e85528ae560c95932562102bc40dfcbfbdcb19,1ff81ff81ff81ff8
gwy/spacetime.mrp,loading.bmp,media_resource,321395,408,3600,gzip,0,18c6355e6f7e4b650b024ab54fd909a247d50f3aca869fb5fe7256814f7ecb5b,1ff81ff81ff81ff8
gwy/spacetime.mrp,arrow2.bmp,media_resource,321822,132,480,gzip,0,e7ae2e2984c5f17a92b10cbd34c62502869bf58e805590fea6c1c0a4bae31786,1ff81ff81ff81ff8
gwy/spacetime.mrp,slblank1.bmp,media_resource,321975,217,1568,gzip,0,3cfc7895dc1b75fc2b332d48e40b2e26654cc59a6f427a7f36edd4b503ad2435,0421042104210421
gwy/spacetime.mrp,sk0_7.bmp,media_resource,322210,332,512,gzip,0,1d4f280b56f959ae692d3623989b1539a06d1871e34e655cf2b80320c0bc5586,fd14fd14fd14fd14
gwy/spacetime.mrp,sk0_6.bmp,media_resource,322560,225,512,gzip,0,2d7630c42fb41821909fce3ba445d53c81342638d67bf1e6adee8290606c6fbb,fd14fd14fd14fd14
gwy/spacetime.mrp,sk0_5.bmp,media_resource,322803,271,512,gzip,0,a204163d6483c5a96892805c1f0a831e3854b0c33fd1e743a982078cf9a3a917,fd14fd14fd14fd14
gwy/spacetime.mrp,sk0_4.bmp,media_resource,323092,267,512,gzip,0,712fd71e63ffd0f9baf50516dcc0d58b827d0afe2f53faff6f167786023cdea7,fd14fd14fd14fd14
gwy/spacetime.mrp,sk0_3.bmp,media_resource,323377,302,512,gzip,0,d57c89dd6ac26a53715fc1520d4371af66cdc93d401b21af65edeab51f3b94dd,fd14fd14fd14fd14
gwy/spacetime.mrp,sk0_2.bmp,media_resource,323697,310,512,gzip,0,d02380c523560e3231f7b8a722c536dfca2d65b415282c1f068e74a406f1264e,fd14fd14fd14fd14
gwy/spacetime.mrp,sk0_1.bmp,media_resource,324025,292,512,gzip,0,08f44634b35f225de7fe3b81102ba28f35e161f98c0e71a8d1facba46daff0e9,fd14fd14fd14fd14
gwy/spacetime.mrp,sk0_0.bmp,media_resource,324335,347,512,gzip,0,748dafa546ccdd002100ca116c3cc0e3a01c067a76263ea0adc88e3630c9e830,fd14fd14fd14fd14
gwy/spacetime.mrp,i87.bmp,media_resource,324698,229,512,gzip,0,55f3f912ce928908f8d857c9ac5e2feba8939c43e6546808ccc40cfb1ea03850,fd14fd14fd14fd14
gwy/spacetime.mrp,sk0_10.bmp,media_resource,324946,273,512,gzip,0,16f5b81bcde200735d0ae332b6bd779399544b1baecfb1b36b3772dd61bcf8c5,fd14fd14fd14fd14
gwy/spacetime.mrp,sk0_9.bmp,media_resource,325237,255,512,gzip,0,1af1d6310b9582756a117b52c1621ec50da56080be39a7534290d562e5298518,fd14fd14fd14fd14
gwy/spacetime.mrp,sk0_8.bmp,media_resource,325510,252,512,gzip,0,ae6e3864c0c6cc9b91c8610c1d36046473d90d80d6e65e7dc52484d1d1e43c05,fd14fd14fd14fd14
gwy/spacetime.mrp,sk49.d,other,325777,97,209,gzip,0,00e75a7f8717506f5cf706ce47980937e4fec81e4b0ffbcdf2930c565b384337,1509000001f0dd00
gwy/spacetime.mrp,sk28.d,other,325889,271,410,gzip,0,24bf54ff62b2d10bf81b2de15c1bc8daf3516a2a7c375db76f6bf988477b4750,061c00000d07e706
gwy/spacetime.mrp,sk30.d,other,326175,295,398,gzip,0,fb55985fef9124eac59ba4030927105e4b44ffc6574a6b846e734c8ad915f421,061c00000d07e706
gwy/spacetime.mrp,sk52.d,other,326485,558,866,gzip,0,c723c40ad9fef29602f52a367ad8615f37433ec6d4146124f6c59a1d9a4e9f65,1231000003f1ab18
gwy/spacetime.mrp,sk53.d,other,327058,462,938,gzip,0,99a805c63b61ba3282796e160b89c7f6fe53676daae06ac6e64020683e8d5924,183200000612f000
gwy/spacetime.mrp,clientskill.dat,other,327544,177,313,gzip,0,58014af9b15fa73d29abf834f5bd21a1c9f025fcaf95953ae187441812b0bbc9,340103ff00020202
gwy/spacetime.mrp,npc4.bmp,media_resource,327738,591,1722,gzip,0,e17d701cd5242f41311a2ccf455634776eea104049f61a12ddb267490337b6ea,1ff81ff81ff81ff8
gwy/spacetime.mrp,i10.bmp,media_resource,328345,265,512,gzip,0,554c29e3cee133964f829ee0fa99f90b00009efb4c4387395d2f645f0fc679bd,fd14fd14fd14fd14
gwy/spacetime.mrp,i11.bmp,media_resource,328626,261,512,gzip,0,bffa84fe70fc23d6ee4592450dbc3890c7df0c5aadffec21f88d084c7033b262,fd14fd14fd14fd14
gwy/spacetime.mrp,i13.bmp,media_resource,328903,279,512,gzip,0,ef8daa0afd25c4e6a1fcbb4164b619d209a44d2ea869daa227b9318c7cef0874,fd14fd14fd14fd14
gwy/spacetime.mrp,i15.bmp,media_resource,329198,251,512,gzip,0,3edc84e2ef40265d9a3d8ea285b76c8e9562b503bf3e330aaaaf6f19cde48fb7,fd14fd14fd14fd14
gwy/spacetime.mrp,i16.bmp,media_resource,329465,205,512,gzip,0,5049a13d28d13dc02f32fb2004a0e29eb04bb891830fa5b983a54f519cbb4416,fd14fd14fd14fd14
gwy/spacetime.mrp,i18.bmp,media_resource,329686,236,512,gzip,0,dc28b3f497f1a17761d4b8631fcf42910eb466ce22249e16c1eecdca6741bb4b,fd14fd14fd14fd14
gwy/spacetime.mrp,i19.bmp,media_resource,329938,254,512,gzip,0,ddb93144223e00d7d6e53cd244af85cc876516b9a9fc1a24fe11074f75f400c3,fd14fd14fd14fd14
gwy/spacetime.mrp,npc13.d,other,330208,43,32,gzip,0,7e0a921365a1d377f76703f2cd62c4eac1d0d366092471f4415e7c2d6ec106b6,020d020002f8f801
gwy/spacetime.mrp,sk2_9.bmp,media_resource,330269,247,512,gzip,0,57b4c698193c2f0c07b80cc6c72f4d97fdcb12f94105417e7d774906bf895e2e,fd14fd14fd14fd14
gwy/spacetime.mrp,sk2_8.bmp,media_resource,330534,226,512,gzip,0,b4c9526d52eef128691966477ee3bed4e6a72df5e4019139fb171ec110d0b9b9,fd14fd14fd14fd14
gwy/spacetime.mrp,npc7.bmp,media_resource,330777,577,1600,gzip,0,2185cf53870ed3958c28d0c8830cfc2f6dc412782baa07e409d5f6f4a77703c7,1ff81ff81ff80828
gwy/spacetime.mrp,i150.bmp,media_resource,331371,332,512,gzip,0,21a88537aa253d9e6c8f8130c320bb704021a1bb33600e32e91cc56cf9472b83,fd14fd14fd14fd14
gwy/spacetime.mrp,i153.bmp,media_resource,331720,131,512,gzip,0,8f8dd09e133e18bba3d010d0795417e75799b24b5d9b0e762760abe6084a0198,fd14fd14fd14fd14
gwy/spacetime.mrp,i152.bmp,media_resource,331868,353,512,gzip,0,aa20c8082489244f26ad031531003738fedcae2055cbe8ff64223d7fabffc0b5,fd14fd14fd14fd14
gwy/spacetime.mrp,i154.bmp,media_resource,332238,138,512,gzip,0,660576e5b687cfeab24878f90cfe23eb06ed0af345bb68558a3b64d851a1ce67,fd14fd14fd14fd14
gwy/spacetime.mrp,i156.bmp,media_resource,332393,155,512,gzip,0,d698125ffc6cafecc71d3d61d677add2691e294cd16fc4fe3f026c500c01699b,fd14fd14fd14fd14
gwy/spacetime.mrp,sk50.bmp,media_resource,332565,1642,5400,gzip,0,1484552d189468013238cf2eac9ee8f5cb6c328bd0feda3a68f96d65c0b4982a,1ff81ff81ff81ff8
gwy/spacetime.mrp,npc14.d,other,334223,83,98,gzip,0,7f0af695d24ad3049a362866ec59796b6d664022d5c0e8a510c350122e753692,040d020003fafc2a
gwy/spacetime.mrp,sk2_3.bmp,media_resource,334324,212,512,gzip,0,ff7e24fcfac3f08b4d92b9afcf688d8ddcad53a878c83f67b61045177434130e,fd14fd14fd14fd14
gwy/spacetime.mrp,npc16.d,other,334552,43,32,gzip,0,e99f242a6167104b082eb5f0c8dacd814530da5bda22696f4e101f2e3de82f16,0210020002fcfc02
gwy/spacetime.mrp,npc17.d,other,334611,43,32,gzip,0,6fc5d35de834c26d00d20b1e229d6e76f39dc7b0aba76a839d8cd02213028898,0211020002fbf605
gwy/spacetime.mrp,npc10.d,other,334670,52,44,gzip,0,eff1e7d065cdab1c8ab59e35ee8bbccf93359b8aca0e1a20dcd4b5015a351cb4,020a020003f6f319
gwy/spacetime.mrp,npc11.d,other,334738,65,56,gzip,0,a01b7f22b5536fe2c76626aaf8fc27939ba198f0713d37440a263f4f7e23c3bb,020b020004f6f509
gwy/spacetime.mrp,npc12.d,other,334819,65,56,gzip,0,1692de1dfa58e3974d379e588ce5cffec68ebad2c28c90bb5ed096e680d772eb,020c020004f7f70c
gwy/spacetime.mrp,sk2_2.bmp,media_resource,334902,271,512,gzip,0,3ee0b44c683bc8ab919c90cfe76c18d75f4382c4a70fc14f8cc56d457fd9e956,fd14fd14fd14fd14
gwy/spacetime.mrp,sk2_1.bmp,media_resource,335191,208,512,gzip,0,b2355d56990cd2052050b3ae10bc752d109a660967b18e284d21ef9800421948,fd14fd14fd14fd14
gwy/spacetime.mrp,reg.ext,reg_ext,335415,657,700,gzip,0,4a0332f1fe239f1e4275de4a5a8425f663a394907b8a035b9cd526e33f9c60b9,4d525047434d4150
gwy/spacetime.mrp,spacetime.ext,ext,336094,152799,242232,gzip,0,c7d324cc8f1f09f8bd93494f879fff15f151a0d54df2af8ca1320d77efc31f71,4d525047434d4150
gwy/tlbb.mrp,start.mr,start_mr,687,1392,3435,gzip,0,e318e580d789041a524a656038fcf38c6be35f9abba48902c8d4580ea8563ed7,1b4d525080010a00
gwy/tlbb.mrp,4.bmp,media_resource,2093,15489,38400,gzip,0,6b3c5d9778897bdc01e759c98538ecd540b9ebe5d826c42a4a9b3b59411fe7f9,6118601860186018
gwy/tlbb.mrp,1.bmp,media_resource,17596,14292,38400,gzip,0,2a35a4a7a9b8c5291830b109875833b5f6b5bd334eff7c4fb6ff48c35916ed2f,c060c060c058c058
gwy/tlbb.mrp,dld3.actor,other,31907,1753,4833,gzip,0,6f52cb225cc2479b0ef47b1ae1e91a6a0bfc0938942c26afc8c7de8b95f78951,01006c6f676f0051
gwy/tlbb.mrp,3.bmp,media_resource,33674,13720,38400,gzip,0,8c4ed05ef391b00585afa757bfafb23b523ca654608c6e99ef0435ed9f230365,0fbe8efeeb720fbe
gwy/tlbb.mrp,9.bmp,media_resource,47408,1574,5000,gzip,0,bf34c6a44e2d179e24045d7848e4c29b93f98b930653ec3e060c088ecec1324e,1ff81ff81ff81ff8
gwy/tlbb.mrp,0.bmp,media_resource,48996,13046,38400,gzip,0,6825fd3fe69a6f971472267e920be0bdf476607a5cbf653e6357faa72ccdd929,0008000000000000
gwy/tlbb.mrp,7.bmp,media_resource,62056,6021,38400,gzip,0,e50e3c697da77d3155fcf8d319e59f42bc1ddaa13638ee57718d93ee70001b18,4118401040104010
gwy/tlbb.mrp,8.bmp,media_resource,68091,1516,5000,gzip,0,a15b9c38813b823cafea2352ea0e66abfd20b25e872fd23ff5d5989b052e94a3,1ff81ff81ff81ff8
gwy/tlbb.mrp,dld0.actor,other,69626,3322,11271,gzip,0,d6174c5a97d6ce98504b7a143ea26134b8ebb0f1664c384a2c3104712b659cef,01006c6f64696e67
gwy/tlbb.mrp,2.bmp,media_resource,72962,16218,38400,gzip,0,b364800d36a4ff659de255f43e97cb5122de6d9e4d67859dbcc6a81a65da065d,4018401840184118
gwy/tlbb.mrp,6.bmp,media_resource,89194,10890,38400,gzip,0,214b846abb6726dec31d70069a898befcdaa518cbdacb4be2de3419c684ba94e,0000200820082008
gwy/tlbb.mrp,dldstr.bin,other,100103,458,476,gzip,0,3c1d6f674a8e7ccc633870e13a71a59bbb35c17fb03bf7cf1a317672cdd8015e,005c67094eba7684
gwy/tlbb.mrp,dld1.actor,other,100580,4553,11271,gzip,0,430087e425be3f4a176e5e710505e8f9162e09f331940e31cc71e3eecd9df250,01006c6f64696e67
gwy/tlbb.mrp,dld2.actor,other,105152,5401,11335,gzip,0,f483cabc72dae105106ed15683eaaaae21c373035d16843953ad89f83e4e5659,01006c6f64696e67
gwy/tlbb.mrp,5.bmp,media_resource,110567,14494,38400,gzip,0,51317397a445dc3335f6d1cd782cae0945e5194a2dbc47afc2dad5d4f37c53bc,8ac92c8a58587d80
gwy/tlbb.mrp,reg.ext,reg_ext,125077,599,624,gzip,0,58db68185b2e4f3974e6d64be939eefb767e7a02c6157c4140a73ccfea93b70f,4d525047434d4150
gwy/tlbb.mrp,dream.ext,ext,125694,181544,277248,gzip,0,a743ecafdf48c83fdc0265fbf2e7b7b9c9d5f1bd2789fee59216d67da8ece60c,4d525047434d4150
gwy/vdload.mrp,start.mr,start_mr,333,1018,2490,gzip,0,ff67eea7e6eed10e3871bd465953e7137001e2495b1eb13309c56db8659bfc7c,1b4d525080010a00
gwy/vdload.mrp,reg.ext,reg_ext,1367,734,792,gzip,0,9aa694455311a95927cf5868ae01339f8127d74d494e7474f1a7aaafb62ac867,4d525047434d4150
gwy/vdload.mrp,vdload.ext,ext,2120,9466,13228,gzip,0,125fa7830d0d78d39e803258e7dce06a1537b3eb6f55fe4c420262f9231ca7ef,4d525047434d4150
gwy/wxjwq.mrp,start.mr,start_mr,808,1514,3787,gzip,0,c8d664aa7034d044ded428158f9cca1d49a3781242421eb1b1de7f201949ff05,1b4d525080010a00
gwy/wxjwq.mrp,mrc_loader.ext,ext,2345,219,232,gzip,0,d36151ee3c119717305afe4b1f0ba47f0f0154f8ba6f2c5081d6402c8eddd938,4d525047434d4150
gwy/wxjwq.mrp,name3.bmp,media_resource,2582,161,696,gzip,0,6bee9896666d73c57e2e17665ee8bfdfe3e0eccc4f28fd2b890ec9304278cefc,1ff81ff81ff81ff8
gwy/wxjwq.mrp,name2.bmp,media_resource,2761,159,224,gzip,0,98ca09c1f8f7385efa59e796c7867ae5602b4278861f8b299a7f869bfac85bed,cb5a821000000000
gwy/wxjwq.mrp,load3.bmp,media_resource,2938,112,364,gzip,0,71d989c1a2f248e0ea7a702e6b1c5182bc97f19ce2b54502e6659ecb5b58be22,1ff81ff81ff81ff8
gwy/wxjwq.mrp,load2.bmp,media_resource,3068,321,3006,gzip,0,77620a4db7a9ee7040e6aabefebb24346a338393a9060bce6ca2abd0b612dd3c,03e703e703e703e7
gwy/wxjwq.mrp,load1.bmp,media_resource,3407,465,6154,gzip,0,c695a68743794db03540f809170ad13947e34572f4b305984cffb2153aa09a3e,0010000000000008
gwy/wxjwq.mrp,name1.bmp,media_resource,3890,3410,23940,gzip,0,4e9df47fcedaf4fdbb00f529f972cddbe872d4a1948b0910677343c7ed50ef97,1ff81ff81ff81ff8
gwy/wxjwq.mrp,hill2.bmp,media_resource,7318,17987,42390,gzip,0,58f04c1d9cc2ce19c3a00e07f40a515572cad87194eb608c5c06ea6e3b5bfca2,c239c239e2414342
gwy/wxjwq.mrp,hill1.bmp,media_resource,25323,16861,35960,gzip,0,812fdcf98e717e6891b094e5c347a8f07d3f87f04ce36eeba5ec2c6923d591fb,6b5c1ff81ff81ff8
gwy/wxjwq.mrp,zhang.bmp,media_resource,42202,691,684,gzip,0,20c8026cb56ef9127699209745a35f016c6587d012b37b5579a795b3c1fc7ec6,13dd44698982a98a
gwy/wxjwq.mrp,sfcidx.bin,other,42912,1978,2020,gzip,0,e19edf8805d7982bad464ce1f0c0541596d974753c992e55e96ef77f8fb28b9c,000003f0ff0c3002
gwy/wxjwq.mrp,world.path,other,44909,1053,1694,gzip,0,597456b8468e98cb640319f83581dc309a3b6879ef28a76a5f7e86cda6c06f17,0036000000280001
gwy/wxjwq.mrp,face4.bmp,media_resource,45980,11632,30720,gzip,0,4abc18479faebb44ac8114ba98c67d956df7bc0098f3653f120ff95c108e900e,3dc75dcf5dcf5dcf
gwy/wxjwq.mrp,face5.bmp,media_resource,57630,9314,30720,gzip,0,ebb2f58d620178bde8c3ef9dee8331af8c16d43ccff0a4c3ca5bf388c928721e,3adf39df39df3adf
gwy/wxjwq.mrp,text.res,other,66961,4359,8454,gzip,0,6fb1df673795d20d47160949bd84fd8ad2661073f117dfefc7e9e38c2868d502,004e0055004c004c
gwy/wxjwq.mrp,face1.bmp,media_resource,71338,4411,30720,gzip,0,f169a959f47843c83c964071b4983ce2760f078318c35fbc0f21ad9587d80731,3faf3faf3faf3faf
gwy/wxjwq.mrp,face2.bmp,media_resource,75767,5858,30720,gzip,0,46454b24cfd087b92f2b4ebebc19f3a8c9ee7d2d5ccd192910d721bc6fe8ac33,fff7bff7bff7fff7
gwy/wxjwq.mrp,face3.bmp,media_resource,81643,10582,30720,gzip,0,dbfc11c586dcfb6bb83a42aae10d94c202214038918d4458607fdf749d75015e,5ccf3dc75dcf5dcf
gwy/wxjwq.mrp,reg.ext,reg_ext,92241,658,704,gzip,0,fe21e8b00e67a42779aad07a0a5adc264395b88065888644d2a0351e85cc7204,4d525047434d4150
gwy/wxjwq.mrp,mmochat.ext,ext,92919,206148,320292,gzip,0,b7cf57219e8eedaba3c71129df2ed4b03b9918d9038d977191fa14f78199f0fd,4d525047434d4150
gwy.mrp,start.mr,start_mr,478,1135,2842,gzip,0,a2fa653706222b39d34b01e6a3eb4861aeb1e8190a2a9088ec6962f68ebab604,1b4d525080010a00
gwy.mrp,mrc_loader.ext,ext,1636,219,232,gzip,0,d36151ee3c119717305afe4b1f0ba47f0f0154f8ba6f2c5081d6402c8eddd938,4d525047434d4150
gwy.mrp,bubble.bmp,media_resource,1874,384,960,gzip,0,45c696aec286db41e63433c8579090decbd1bf97f52578c472205571390e868c,1ff81ff81ff81ff8
gwy.mrp,bubble_bk.bmp,media_resource,2280,261,1344,gzip,0,19f2bdd70b3d5c1b9b46f9c61bf28342a97f2c29cdd629a1f3eed4b0bce90e98,1ff81ff81ff81ff8
gwy.mrp,sfc.bin,other,2557,1978,2020,gzip,0,e19edf8805d7982bad464ce1f0c0541596d974753c992e55e96ef77f8fb28b9c,000003f0ff0c3002
gwy.mrp,logo.bmp,media_resource,4552,6713,34750,gzip,0,f6fa0dc4c059fc7212f99dec08b587d372fbd5a28a4752c9e158c2032c68b530,9302930293029302
gwy.mrp,graphics.ext,ext,11286,10374,14292,gzip,0,5989093a3615e6007a7222e31919390b937e3597d33feffe28137f6fc2035cd0,4d525047434d4150
gwy.mrp,cfunction.ext,ext,21682,34663,49620,gzip,0,e9a84d95568546ef41464e7d5ee94de652cd77241ccd560e20955c0e13832e9e,4d525047434d4150
